<mxfile host="app.diagrams.net" modified="2023-04-18T09:06:11.892Z" agent="Mozilla/5.0 (Windows NT 10.0; Win64; x64) AppleWebKit/537.36 (KHTML, like Gecko) Chrome/112.0.0.0 Safari/537.36 Edg/112.0.1722.48" etag="i4UAxhoO3LBuEamFfxNN" version="21.1.8" type="github">
  <diagram id="R2lEEEUBdFMjLlhIrx00" name="Page-1">
    <mxGraphModel dx="1160" dy="541" grid="1" gridSize="10" guides="1" tooltips="1" connect="1" arrows="1" fold="1" page="1" pageScale="1" pageWidth="850" pageHeight="1100" math="0" shadow="0" extFonts="Permanent Marker^https://fonts.googleapis.com/css?family=Permanent+Marker">
      <root>
        <mxCell id="0" />
        <mxCell id="1" parent="0" />
        <mxCell id="frlCl_CoD5tqCjbnerzT-2" value="NHANVIEN" style="whiteSpace=wrap;html=1;align=center;fontSize=16;" parent="1" vertex="1">
          <mxGeometry x="170" y="150" width="100" height="40" as="geometry" />
        </mxCell>
        <mxCell id="frlCl_CoD5tqCjbnerzT-3" value="MaNV" style="ellipse;whiteSpace=wrap;html=1;align=center;fontStyle=4;fontSize=16;" parent="1" vertex="1">
          <mxGeometry x="170" y="70" width="100" height="40" as="geometry" />
        </mxCell>
        <mxCell id="frlCl_CoD5tqCjbnerzT-4" value="TenNV" style="ellipse;whiteSpace=wrap;html=1;align=center;fontSize=16;" parent="1" vertex="1">
          <mxGeometry x="30" y="110" width="100" height="40" as="geometry" />
        </mxCell>
        <mxCell id="frlCl_CoD5tqCjbnerzT-5" value="DiaChi" style="ellipse;whiteSpace=wrap;html=1;align=center;fontSize=16;" parent="1" vertex="1">
          <mxGeometry x="30" y="190" width="100" height="40" as="geometry" />
        </mxCell>
        <mxCell id="frlCl_CoD5tqCjbnerzT-6" value="NgaySinh" style="ellipse;whiteSpace=wrap;html=1;align=center;fontSize=16;" parent="1" vertex="1">
          <mxGeometry x="170" y="230" width="100" height="40" as="geometry" />
        </mxCell>
        <mxCell id="frlCl_CoD5tqCjbnerzT-7" value="DUAN" style="whiteSpace=wrap;html=1;align=center;fontSize=16;" parent="1" vertex="1">
          <mxGeometry x="580" y="150" width="100" height="40" as="geometry" />
        </mxCell>
        <mxCell id="frlCl_CoD5tqCjbnerzT-9" value="TenDA" style="ellipse;whiteSpace=wrap;html=1;align=center;fontSize=16;" parent="1" vertex="1">
          <mxGeometry x="720" y="150" width="100" height="40" as="geometry" />
        </mxCell>
        <mxCell id="frlCl_CoD5tqCjbnerzT-10" value="NgayBatDau" style="ellipse;whiteSpace=wrap;html=1;align=center;fontSize=16;" parent="1" vertex="1">
          <mxGeometry x="580" y="230" width="100" height="40" as="geometry" />
        </mxCell>
        <mxCell id="frlCl_CoD5tqCjbnerzT-12" value="" style="endArrow=none;html=1;rounded=0;fontSize=12;startSize=8;endSize=8;curved=1;exitX=0.5;exitY=1;exitDx=0;exitDy=0;" parent="1" source="frlCl_CoD5tqCjbnerzT-3" target="frlCl_CoD5tqCjbnerzT-2" edge="1">
          <mxGeometry relative="1" as="geometry">
            <mxPoint x="250" y="290" as="sourcePoint" />
            <mxPoint x="410" y="290" as="targetPoint" />
          </mxGeometry>
        </mxCell>
        <mxCell id="frlCl_CoD5tqCjbnerzT-13" value="" style="endArrow=none;html=1;rounded=0;fontSize=12;startSize=8;endSize=8;curved=1;exitX=1;exitY=1;exitDx=0;exitDy=0;entryX=0;entryY=0;entryDx=0;entryDy=0;" parent="1" source="frlCl_CoD5tqCjbnerzT-4" target="frlCl_CoD5tqCjbnerzT-2" edge="1">
          <mxGeometry relative="1" as="geometry">
            <mxPoint x="230" y="120" as="sourcePoint" />
            <mxPoint x="230" y="160" as="targetPoint" />
          </mxGeometry>
        </mxCell>
        <mxCell id="frlCl_CoD5tqCjbnerzT-14" value="" style="endArrow=none;html=1;rounded=0;fontSize=12;startSize=8;endSize=8;curved=1;exitX=1;exitY=0;exitDx=0;exitDy=0;entryX=0;entryY=1;entryDx=0;entryDy=0;" parent="1" source="frlCl_CoD5tqCjbnerzT-5" target="frlCl_CoD5tqCjbnerzT-2" edge="1">
          <mxGeometry relative="1" as="geometry">
            <mxPoint x="240" y="130" as="sourcePoint" />
            <mxPoint x="240" y="170" as="targetPoint" />
          </mxGeometry>
        </mxCell>
        <mxCell id="frlCl_CoD5tqCjbnerzT-15" value="" style="endArrow=none;html=1;rounded=0;fontSize=12;startSize=8;endSize=8;curved=1;exitX=0.5;exitY=1;exitDx=0;exitDy=0;entryX=0.5;entryY=0;entryDx=0;entryDy=0;" parent="1" source="frlCl_CoD5tqCjbnerzT-2" target="frlCl_CoD5tqCjbnerzT-6" edge="1">
          <mxGeometry relative="1" as="geometry">
            <mxPoint x="250" y="140" as="sourcePoint" />
            <mxPoint x="250" y="180" as="targetPoint" />
          </mxGeometry>
        </mxCell>
        <mxCell id="frlCl_CoD5tqCjbnerzT-16" value="" style="endArrow=none;html=1;rounded=0;fontSize=12;startSize=8;endSize=8;curved=1;entryX=0;entryY=0;entryDx=0;entryDy=0;exitX=1;exitY=0.5;exitDx=0;exitDy=0;" parent="1" source="frlCl_CoD5tqCjbnerzT-21" target="frlCl_CoD5tqCjbnerzT-7" edge="1">
          <mxGeometry relative="1" as="geometry">
            <mxPoint x="480" y="150" as="sourcePoint" />
            <mxPoint x="280" y="120" as="targetPoint" />
          </mxGeometry>
        </mxCell>
        <mxCell id="frlCl_CoD5tqCjbnerzT-17" value="" style="endArrow=none;html=1;rounded=0;fontSize=12;startSize=8;endSize=8;curved=1;exitX=0.5;exitY=1;exitDx=0;exitDy=0;entryX=0.5;entryY=0;entryDx=0;entryDy=0;" parent="1" source="frlCl_CoD5tqCjbnerzT-7" target="frlCl_CoD5tqCjbnerzT-10" edge="1">
          <mxGeometry relative="1" as="geometry">
            <mxPoint x="440" y="160" as="sourcePoint" />
            <mxPoint x="440" y="200" as="targetPoint" />
          </mxGeometry>
        </mxCell>
        <mxCell id="frlCl_CoD5tqCjbnerzT-18" value="" style="endArrow=none;html=1;rounded=0;fontSize=12;startSize=8;endSize=8;curved=1;exitX=0;exitY=0.5;exitDx=0;exitDy=0;entryX=1;entryY=0.5;entryDx=0;entryDy=0;" parent="1" source="frlCl_CoD5tqCjbnerzT-9" target="frlCl_CoD5tqCjbnerzT-7" edge="1">
          <mxGeometry relative="1" as="geometry">
            <mxPoint x="450" y="170" as="sourcePoint" />
            <mxPoint x="450" y="210" as="targetPoint" />
          </mxGeometry>
        </mxCell>
        <mxCell id="frlCl_CoD5tqCjbnerzT-19" value="" style="endArrow=none;html=1;rounded=0;fontSize=12;startSize=8;endSize=8;curved=1;exitX=0;exitY=0.5;exitDx=0;exitDy=0;entryX=1;entryY=0;entryDx=0;entryDy=0;" parent="1" source="frlCl_CoD5tqCjbnerzT-21" target="frlCl_CoD5tqCjbnerzT-2" edge="1">
          <mxGeometry relative="1" as="geometry">
            <mxPoint x="310" y="110" as="sourcePoint" />
            <mxPoint x="310" y="150" as="targetPoint" />
          </mxGeometry>
        </mxCell>
        <mxCell id="frlCl_CoD5tqCjbnerzT-20" value="" style="endArrow=none;html=1;rounded=0;fontSize=12;startSize=8;endSize=8;curved=1;exitX=0.5;exitY=1;exitDx=0;exitDy=0;" parent="1" source="frlCl_CoD5tqCjbnerzT-22" target="frlCl_CoD5tqCjbnerzT-7" edge="1">
          <mxGeometry relative="1" as="geometry">
            <mxPoint x="630" y="110" as="sourcePoint" />
            <mxPoint x="470" y="230" as="targetPoint" />
          </mxGeometry>
        </mxCell>
        <mxCell id="frlCl_CoD5tqCjbnerzT-21" value="THAMGIA" style="shape=rhombus;perimeter=rhombusPerimeter;whiteSpace=wrap;html=1;align=center;fontSize=16;" parent="1" vertex="1">
          <mxGeometry x="370" y="68" width="120" height="60" as="geometry" />
        </mxCell>
        <mxCell id="frlCl_CoD5tqCjbnerzT-22" value="MaDA" style="ellipse;whiteSpace=wrap;html=1;align=center;fontStyle=4;fontSize=16;" parent="1" vertex="1">
          <mxGeometry x="580" y="70" width="100" height="40" as="geometry" />
        </mxCell>
        <mxCell id="frlCl_CoD5tqCjbnerzT-23" value="(0,1)" style="text;html=1;strokeColor=none;fillColor=none;align=center;verticalAlign=middle;whiteSpace=wrap;rounded=0;fontSize=16;" parent="1" vertex="1">
          <mxGeometry x="860" y="2170" width="60" height="30" as="geometry" />
        </mxCell>
        <mxCell id="frlCl_CoD5tqCjbnerzT-24" value="(1,N)" style="text;html=1;strokeColor=none;fillColor=none;align=center;verticalAlign=middle;whiteSpace=wrap;rounded=0;fontSize=16;" parent="1" vertex="1">
          <mxGeometry x="860" y="2210" width="60" height="30" as="geometry" />
        </mxCell>
        <mxCell id="frlCl_CoD5tqCjbnerzT-25" value="(N,N)" style="text;html=1;strokeColor=none;fillColor=none;align=center;verticalAlign=middle;whiteSpace=wrap;rounded=0;fontSize=16;" parent="1" vertex="1">
          <mxGeometry x="960" y="2210" width="60" height="30" as="geometry" />
        </mxCell>
        <mxCell id="frlCl_CoD5tqCjbnerzT-26" value="(1,1)" style="text;html=1;strokeColor=none;fillColor=none;align=center;verticalAlign=middle;whiteSpace=wrap;rounded=0;fontSize=16;" parent="1" vertex="1">
          <mxGeometry x="960" y="2170" width="60" height="30" as="geometry" />
        </mxCell>
        <mxCell id="frlCl_CoD5tqCjbnerzT-27" value="(0,N)" style="text;html=1;strokeColor=none;fillColor=none;align=center;verticalAlign=middle;whiteSpace=wrap;rounded=0;fontSize=16;" parent="1" vertex="1">
          <mxGeometry x="290" y="450" width="60" height="30" as="geometry" />
        </mxCell>
        <mxCell id="frlCl_CoD5tqCjbnerzT-28" value="(0,N)" style="text;html=1;strokeColor=none;fillColor=none;align=center;verticalAlign=middle;whiteSpace=wrap;rounded=0;fontSize=16;" parent="1" vertex="1">
          <mxGeometry x="340" y="110" width="60" height="30" as="geometry" />
        </mxCell>
        <mxCell id="frlCl_CoD5tqCjbnerzT-29" value="(1,N)" style="text;html=1;strokeColor=none;fillColor=none;align=center;verticalAlign=middle;whiteSpace=wrap;rounded=0;fontSize=16;" parent="1" vertex="1">
          <mxGeometry x="460" y="110" width="60" height="30" as="geometry" />
        </mxCell>
        <mxCell id="frlCl_CoD5tqCjbnerzT-37" value="Luong" style="ellipse;whiteSpace=wrap;html=1;align=center;fontSize=16;" parent="1" vertex="1">
          <mxGeometry x="380" y="160" width="100" height="40" as="geometry" />
        </mxCell>
        <mxCell id="frlCl_CoD5tqCjbnerzT-41" value="&lt;b&gt;1&lt;/b&gt;" style="shape=ext;margin=3;double=1;whiteSpace=wrap;html=1;align=center;fontSize=16;" parent="1" vertex="1">
          <mxGeometry width="40" height="40" as="geometry" />
        </mxCell>
        <mxCell id="frlCl_CoD5tqCjbnerzT-48" value="" style="endArrow=none;html=1;rounded=0;fontSize=12;startSize=8;endSize=8;curved=1;entryX=0.5;entryY=1;entryDx=0;entryDy=0;" parent="1" source="frlCl_CoD5tqCjbnerzT-37" target="frlCl_CoD5tqCjbnerzT-21" edge="1">
          <mxGeometry relative="1" as="geometry">
            <mxPoint x="125" y="206" as="sourcePoint" />
            <mxPoint x="180" y="200" as="targetPoint" />
          </mxGeometry>
        </mxCell>
        <mxCell id="frlCl_CoD5tqCjbnerzT-49" value="&lt;b&gt;2&lt;/b&gt;" style="shape=ext;margin=3;double=1;whiteSpace=wrap;html=1;align=center;fontSize=16;" parent="1" vertex="1">
          <mxGeometry y="280" width="40" height="40" as="geometry" />
        </mxCell>
        <mxCell id="frlCl_CoD5tqCjbnerzT-50" value="MONHOC" style="whiteSpace=wrap;html=1;align=center;fontSize=16;" parent="1" vertex="1">
          <mxGeometry x="240" y="380" width="100" height="40" as="geometry" />
        </mxCell>
        <mxCell id="frlCl_CoD5tqCjbnerzT-51" value="MaMon" style="ellipse;whiteSpace=wrap;html=1;align=center;fontStyle=4;fontSize=16;" parent="1" vertex="1">
          <mxGeometry x="80" y="320" width="100" height="40" as="geometry" />
        </mxCell>
        <mxCell id="frlCl_CoD5tqCjbnerzT-52" value="Ten" style="ellipse;whiteSpace=wrap;html=1;align=center;fontSize=16;" parent="1" vertex="1">
          <mxGeometry x="80" y="380" width="100" height="40" as="geometry" />
        </mxCell>
        <mxCell id="frlCl_CoD5tqCjbnerzT-53" value="SoTC" style="ellipse;whiteSpace=wrap;html=1;align=center;fontSize=16;" parent="1" vertex="1">
          <mxGeometry x="80" y="440" width="100" height="40" as="geometry" />
        </mxCell>
        <mxCell id="frlCl_CoD5tqCjbnerzT-54" value="TIENQUYET" style="shape=rhombus;perimeter=rhombusPerimeter;whiteSpace=wrap;html=1;align=center;fontSize=16;" parent="1" vertex="1">
          <mxGeometry x="400" y="360" width="150" height="80" as="geometry" />
        </mxCell>
        <mxCell id="frlCl_CoD5tqCjbnerzT-55" value="" style="endArrow=none;html=1;rounded=0;fontSize=12;startSize=8;endSize=8;curved=1;exitX=1;exitY=0;exitDx=0;exitDy=0;entryX=0;entryY=1;entryDx=0;entryDy=0;" parent="1" source="frlCl_CoD5tqCjbnerzT-53" target="frlCl_CoD5tqCjbnerzT-50" edge="1">
          <mxGeometry width="50" height="50" relative="1" as="geometry">
            <mxPoint x="300" y="510" as="sourcePoint" />
            <mxPoint x="350" y="460" as="targetPoint" />
          </mxGeometry>
        </mxCell>
        <mxCell id="frlCl_CoD5tqCjbnerzT-56" value="" style="endArrow=none;html=1;rounded=0;fontSize=12;startSize=8;endSize=8;curved=1;exitX=1;exitY=0.5;exitDx=0;exitDy=0;entryX=0;entryY=0.5;entryDx=0;entryDy=0;" parent="1" source="frlCl_CoD5tqCjbnerzT-52" target="frlCl_CoD5tqCjbnerzT-50" edge="1">
          <mxGeometry width="50" height="50" relative="1" as="geometry">
            <mxPoint x="310" y="520" as="sourcePoint" />
            <mxPoint x="360" y="470" as="targetPoint" />
          </mxGeometry>
        </mxCell>
        <mxCell id="frlCl_CoD5tqCjbnerzT-57" value="" style="endArrow=none;html=1;rounded=0;fontSize=12;startSize=8;endSize=8;exitX=1;exitY=1;exitDx=0;exitDy=0;entryX=0;entryY=0;entryDx=0;entryDy=0;" parent="1" source="frlCl_CoD5tqCjbnerzT-51" target="frlCl_CoD5tqCjbnerzT-50" edge="1">
          <mxGeometry width="50" height="50" relative="1" as="geometry">
            <mxPoint x="320" y="530" as="sourcePoint" />
            <mxPoint x="370" y="480" as="targetPoint" />
          </mxGeometry>
        </mxCell>
        <mxCell id="frlCl_CoD5tqCjbnerzT-58" value="" style="endArrow=none;html=1;rounded=0;fontSize=12;startSize=8;endSize=8;entryX=0.5;entryY=1;entryDx=0;entryDy=0;exitX=0.5;exitY=1;exitDx=0;exitDy=0;edgeStyle=orthogonalEdgeStyle;" parent="1" source="frlCl_CoD5tqCjbnerzT-54" target="frlCl_CoD5tqCjbnerzT-50" edge="1">
          <mxGeometry width="50" height="50" relative="1" as="geometry">
            <mxPoint x="250" y="470" as="sourcePoint" />
            <mxPoint x="300" y="420" as="targetPoint" />
          </mxGeometry>
        </mxCell>
        <mxCell id="frlCl_CoD5tqCjbnerzT-59" value="" style="endArrow=none;html=1;rounded=0;fontSize=12;startSize=8;endSize=8;entryX=0.5;entryY=0;entryDx=0;entryDy=0;exitX=0.5;exitY=0;exitDx=0;exitDy=0;edgeStyle=orthogonalEdgeStyle;" parent="1" source="frlCl_CoD5tqCjbnerzT-54" target="frlCl_CoD5tqCjbnerzT-50" edge="1">
          <mxGeometry width="50" height="50" relative="1" as="geometry">
            <mxPoint x="340" y="550" as="sourcePoint" />
            <mxPoint x="390" y="500" as="targetPoint" />
          </mxGeometry>
        </mxCell>
        <mxCell id="frlCl_CoD5tqCjbnerzT-60" value="(0,N)" style="text;html=1;strokeColor=none;fillColor=none;align=center;verticalAlign=middle;whiteSpace=wrap;rounded=0;fontSize=16;" parent="1" vertex="1">
          <mxGeometry x="290" y="320" width="60" height="30" as="geometry" />
        </mxCell>
        <mxCell id="frlCl_CoD5tqCjbnerzT-61" value="&lt;b&gt;3&lt;/b&gt;" style="shape=ext;margin=3;double=1;whiteSpace=wrap;html=1;align=center;fontSize=16;" parent="1" vertex="1">
          <mxGeometry y="480" width="40" height="40" as="geometry" />
        </mxCell>
        <mxCell id="frlCl_CoD5tqCjbnerzT-62" value="NHAHOAHOC" style="whiteSpace=wrap;html=1;align=center;fontSize=16;" parent="1" vertex="1">
          <mxGeometry x="185" y="530" width="140" height="40" as="geometry" />
        </mxCell>
        <mxCell id="frlCl_CoD5tqCjbnerzT-63" value="DUAN" style="whiteSpace=wrap;html=1;align=center;fontSize=16;" parent="1" vertex="1">
          <mxGeometry x="585" y="530" width="80" height="40" as="geometry" />
        </mxCell>
        <mxCell id="frlCl_CoD5tqCjbnerzT-64" value="THAMGIA" style="shape=rhombus;perimeter=rhombusPerimeter;whiteSpace=wrap;html=1;align=center;fontSize=16;" parent="1" vertex="1">
          <mxGeometry x="390" y="515" width="130" height="70" as="geometry" />
        </mxCell>
        <mxCell id="frlCl_CoD5tqCjbnerzT-67" value="MaNHH" style="ellipse;whiteSpace=wrap;html=1;align=center;fontStyle=4;fontSize=16;" parent="1" vertex="1">
          <mxGeometry x="25" y="530" width="100" height="40" as="geometry" />
        </mxCell>
        <mxCell id="frlCl_CoD5tqCjbnerzT-68" value="TenNHH" style="ellipse;whiteSpace=wrap;html=1;align=center;fontSize=16;" parent="1" vertex="1">
          <mxGeometry x="25" y="590" width="100" height="40" as="geometry" />
        </mxCell>
        <mxCell id="frlCl_CoD5tqCjbnerzT-69" value="SDT" style="ellipse;whiteSpace=wrap;html=1;align=center;fontSize=16;" parent="1" vertex="1">
          <mxGeometry x="25" y="650" width="100" height="40" as="geometry" />
        </mxCell>
        <mxCell id="frlCl_CoD5tqCjbnerzT-70" value="MaDA" style="ellipse;whiteSpace=wrap;html=1;align=center;fontStyle=4;fontSize=16;" parent="1" vertex="1">
          <mxGeometry x="725" y="530" width="100" height="40" as="geometry" />
        </mxCell>
        <mxCell id="frlCl_CoD5tqCjbnerzT-71" value="NgayBatDau" style="ellipse;whiteSpace=wrap;html=1;align=center;fontSize=16;" parent="1" vertex="1">
          <mxGeometry x="705" y="600" width="120" height="40" as="geometry" />
        </mxCell>
        <mxCell id="frlCl_CoD5tqCjbnerzT-73" value="Gia" style="ellipse;whiteSpace=wrap;html=1;align=center;fontSize=16;" parent="1" vertex="1">
          <mxGeometry x="490" y="771" width="100" height="40" as="geometry" />
        </mxCell>
        <mxCell id="frlCl_CoD5tqCjbnerzT-74" value="" style="endArrow=none;html=1;rounded=0;fontSize=12;startSize=8;endSize=8;curved=1;entryX=0;entryY=0.5;entryDx=0;entryDy=0;exitX=1;exitY=0.5;exitDx=0;exitDy=0;" parent="1" source="frlCl_CoD5tqCjbnerzT-67" target="frlCl_CoD5tqCjbnerzT-62" edge="1">
          <mxGeometry width="50" height="50" relative="1" as="geometry">
            <mxPoint x="105" y="515" as="sourcePoint" />
            <mxPoint x="155" y="465" as="targetPoint" />
          </mxGeometry>
        </mxCell>
        <mxCell id="frlCl_CoD5tqCjbnerzT-75" value="" style="endArrow=none;html=1;rounded=0;fontSize=12;startSize=8;endSize=8;curved=1;exitX=1;exitY=0;exitDx=0;exitDy=0;entryX=0;entryY=1;entryDx=0;entryDy=0;" parent="1" source="frlCl_CoD5tqCjbnerzT-68" target="frlCl_CoD5tqCjbnerzT-62" edge="1">
          <mxGeometry width="50" height="50" relative="1" as="geometry">
            <mxPoint x="205" y="465" as="sourcePoint" />
            <mxPoint x="255" y="415" as="targetPoint" />
          </mxGeometry>
        </mxCell>
        <mxCell id="frlCl_CoD5tqCjbnerzT-76" value="" style="endArrow=none;html=1;rounded=0;fontSize=12;startSize=8;endSize=8;curved=1;exitX=1;exitY=0;exitDx=0;exitDy=0;entryX=0.25;entryY=1;entryDx=0;entryDy=0;" parent="1" source="frlCl_CoD5tqCjbnerzT-69" target="frlCl_CoD5tqCjbnerzT-62" edge="1">
          <mxGeometry width="50" height="50" relative="1" as="geometry">
            <mxPoint x="215" y="475" as="sourcePoint" />
            <mxPoint x="155" y="585" as="targetPoint" />
          </mxGeometry>
        </mxCell>
        <mxCell id="frlCl_CoD5tqCjbnerzT-77" value="" style="endArrow=none;html=1;rounded=0;fontSize=12;startSize=8;endSize=8;curved=1;exitX=1;exitY=0.5;exitDx=0;exitDy=0;entryX=0;entryY=0.5;entryDx=0;entryDy=0;" parent="1" source="frlCl_CoD5tqCjbnerzT-64" target="frlCl_CoD5tqCjbnerzT-63" edge="1">
          <mxGeometry width="50" height="50" relative="1" as="geometry">
            <mxPoint x="225" y="485" as="sourcePoint" />
            <mxPoint x="275" y="435" as="targetPoint" />
          </mxGeometry>
        </mxCell>
        <mxCell id="frlCl_CoD5tqCjbnerzT-78" value="" style="endArrow=none;html=1;rounded=0;fontSize=12;startSize=8;endSize=8;curved=1;exitX=0;exitY=0;exitDx=0;exitDy=0;entryX=0.75;entryY=1;entryDx=0;entryDy=0;" parent="1" source="frlCl_CoD5tqCjbnerzT-71" target="frlCl_CoD5tqCjbnerzT-63" edge="1">
          <mxGeometry width="50" height="50" relative="1" as="geometry">
            <mxPoint x="235" y="495" as="sourcePoint" />
            <mxPoint x="665" y="585" as="targetPoint" />
          </mxGeometry>
        </mxCell>
        <mxCell id="frlCl_CoD5tqCjbnerzT-79" value="" style="endArrow=none;html=1;rounded=0;fontSize=12;startSize=8;endSize=8;curved=1;exitX=1;exitY=0.5;exitDx=0;exitDy=0;entryX=0;entryY=0.5;entryDx=0;entryDy=0;" parent="1" source="frlCl_CoD5tqCjbnerzT-63" target="frlCl_CoD5tqCjbnerzT-70" edge="1">
          <mxGeometry width="50" height="50" relative="1" as="geometry">
            <mxPoint x="675" y="555" as="sourcePoint" />
            <mxPoint x="725" y="505" as="targetPoint" />
          </mxGeometry>
        </mxCell>
        <mxCell id="frlCl_CoD5tqCjbnerzT-80" value="" style="endArrow=none;html=1;rounded=0;fontSize=12;startSize=8;endSize=8;curved=1;exitX=0.75;exitY=1;exitDx=0;exitDy=0;entryX=0;entryY=0.5;entryDx=0;entryDy=0;" parent="1" source="frlCl_CoD5tqCjbnerzT-84" target="frlCl_CoD5tqCjbnerzT-73" edge="1">
          <mxGeometry width="50" height="50" relative="1" as="geometry">
            <mxPoint x="500" y="831" as="sourcePoint" />
            <mxPoint x="305" y="611" as="targetPoint" />
          </mxGeometry>
        </mxCell>
        <mxCell id="frlCl_CoD5tqCjbnerzT-81" value="" style="endArrow=none;html=1;rounded=0;fontSize=12;startSize=8;endSize=8;curved=1;entryX=0.25;entryY=1;entryDx=0;entryDy=0;exitX=1;exitY=0.5;exitDx=0;exitDy=0;" parent="1" source="frlCl_CoD5tqCjbnerzT-90" target="frlCl_CoD5tqCjbnerzT-84" edge="1">
          <mxGeometry width="50" height="50" relative="1" as="geometry">
            <mxPoint x="410" y="891" as="sourcePoint" />
            <mxPoint x="400" y="831" as="targetPoint" />
          </mxGeometry>
        </mxCell>
        <mxCell id="frlCl_CoD5tqCjbnerzT-82" value="" style="endArrow=none;html=1;rounded=0;fontSize=12;startSize=8;endSize=8;curved=1;exitX=1;exitY=0.5;exitDx=0;exitDy=0;entryX=0;entryY=0.5;entryDx=0;entryDy=0;" parent="1" source="frlCl_CoD5tqCjbnerzT-62" target="frlCl_CoD5tqCjbnerzT-64" edge="1">
          <mxGeometry width="50" height="50" relative="1" as="geometry">
            <mxPoint x="235" y="495" as="sourcePoint" />
            <mxPoint x="285" y="445" as="targetPoint" />
          </mxGeometry>
        </mxCell>
        <mxCell id="frlCl_CoD5tqCjbnerzT-83" value="" style="endArrow=none;html=1;rounded=0;fontSize=12;startSize=8;endSize=8;curved=1;exitX=0.5;exitY=0;exitDx=0;exitDy=0;entryX=0.75;entryY=1;entryDx=0;entryDy=0;" parent="1" source="frlCl_CoD5tqCjbnerzT-85" target="frlCl_CoD5tqCjbnerzT-62" edge="1">
          <mxGeometry width="50" height="50" relative="1" as="geometry">
            <mxPoint x="625" y="465" as="sourcePoint" />
            <mxPoint x="260" y="560" as="targetPoint" />
          </mxGeometry>
        </mxCell>
        <mxCell id="frlCl_CoD5tqCjbnerzT-84" value="THIETBI" style="shape=ext;margin=3;double=1;whiteSpace=wrap;html=1;align=center;fontSize=16;" parent="1" vertex="1">
          <mxGeometry x="400" y="711" width="100" height="40" as="geometry" />
        </mxCell>
        <mxCell id="frlCl_CoD5tqCjbnerzT-85" value="SOHUU" style="shape=rhombus;double=1;perimeter=rhombusPerimeter;whiteSpace=wrap;html=1;align=center;fontSize=16;" parent="1" vertex="1">
          <mxGeometry x="230" y="620" width="120" height="60" as="geometry" />
        </mxCell>
        <mxCell id="frlCl_CoD5tqCjbnerzT-86" value="SUDUNG" style="shape=rhombus;double=1;perimeter=rhombusPerimeter;whiteSpace=wrap;html=1;align=center;fontSize=16;" parent="1" vertex="1">
          <mxGeometry x="565" y="621" width="120" height="60" as="geometry" />
        </mxCell>
        <mxCell id="frlCl_CoD5tqCjbnerzT-87" value="" style="endArrow=none;html=1;rounded=0;fontSize=12;startSize=8;endSize=8;curved=1;exitX=1;exitY=1;exitDx=0;exitDy=0;entryX=0;entryY=0;entryDx=0;entryDy=0;" parent="1" source="frlCl_CoD5tqCjbnerzT-85" target="frlCl_CoD5tqCjbnerzT-84" edge="1">
          <mxGeometry width="50" height="50" relative="1" as="geometry">
            <mxPoint x="635" y="466" as="sourcePoint" />
            <mxPoint x="685" y="416" as="targetPoint" />
          </mxGeometry>
        </mxCell>
        <mxCell id="frlCl_CoD5tqCjbnerzT-88" value="" style="endArrow=none;html=1;rounded=0;fontSize=12;startSize=8;endSize=8;curved=1;entryX=0.5;entryY=1;entryDx=0;entryDy=0;" parent="1" source="frlCl_CoD5tqCjbnerzT-86" target="frlCl_CoD5tqCjbnerzT-63" edge="1">
          <mxGeometry width="50" height="50" relative="1" as="geometry">
            <mxPoint x="645" y="485" as="sourcePoint" />
            <mxPoint x="695" y="435" as="targetPoint" />
          </mxGeometry>
        </mxCell>
        <mxCell id="frlCl_CoD5tqCjbnerzT-89" value="" style="endArrow=none;html=1;rounded=0;fontSize=12;startSize=8;endSize=8;curved=1;entryX=0;entryY=1;entryDx=0;entryDy=0;exitX=1;exitY=0;exitDx=0;exitDy=0;" parent="1" source="frlCl_CoD5tqCjbnerzT-84" target="frlCl_CoD5tqCjbnerzT-86" edge="1">
          <mxGeometry width="50" height="50" relative="1" as="geometry">
            <mxPoint x="500" y="756" as="sourcePoint" />
            <mxPoint x="550" y="706" as="targetPoint" />
          </mxGeometry>
        </mxCell>
        <mxCell id="frlCl_CoD5tqCjbnerzT-90" value="SoTB" style="ellipse;whiteSpace=wrap;html=1;align=center;fontSize=16;" parent="1" vertex="1">
          <mxGeometry x="310" y="771" width="100" height="40" as="geometry" />
        </mxCell>
        <mxCell id="frlCl_CoD5tqCjbnerzT-91" value="NgayGiaoTB" style="ellipse;whiteSpace=wrap;html=1;align=center;fontSize=16;" parent="1" vertex="1">
          <mxGeometry x="400" y="625" width="110" height="50" as="geometry" />
        </mxCell>
        <mxCell id="frlCl_CoD5tqCjbnerzT-92" value="" style="endArrow=none;html=1;rounded=0;fontSize=12;startSize=8;endSize=8;curved=1;entryX=0;entryY=0.5;entryDx=0;entryDy=0;exitX=1;exitY=0.5;exitDx=0;exitDy=0;" parent="1" source="frlCl_CoD5tqCjbnerzT-85" target="frlCl_CoD5tqCjbnerzT-91" edge="1">
          <mxGeometry width="50" height="50" relative="1" as="geometry">
            <mxPoint x="400" y="751" as="sourcePoint" />
            <mxPoint x="450" y="701" as="targetPoint" />
          </mxGeometry>
        </mxCell>
        <mxCell id="frlCl_CoD5tqCjbnerzT-93" value="" style="endArrow=none;html=1;rounded=0;fontSize=12;startSize=8;endSize=8;curved=1;entryX=1;entryY=0.5;entryDx=0;entryDy=0;exitX=0;exitY=0.5;exitDx=0;exitDy=0;" parent="1" source="frlCl_CoD5tqCjbnerzT-86" target="frlCl_CoD5tqCjbnerzT-91" edge="1">
          <mxGeometry width="50" height="50" relative="1" as="geometry">
            <mxPoint x="410" y="761" as="sourcePoint" />
            <mxPoint x="460" y="711" as="targetPoint" />
          </mxGeometry>
        </mxCell>
        <mxCell id="frlCl_CoD5tqCjbnerzT-94" value="(1,N)" style="text;html=1;strokeColor=none;fillColor=none;align=center;verticalAlign=middle;whiteSpace=wrap;rounded=0;fontSize=16;" parent="1" vertex="1">
          <mxGeometry x="525" y="520" width="60" height="30" as="geometry" />
        </mxCell>
        <mxCell id="frlCl_CoD5tqCjbnerzT-95" value="(1,N)" style="text;html=1;strokeColor=none;fillColor=none;align=center;verticalAlign=middle;whiteSpace=wrap;rounded=0;fontSize=16;" parent="1" vertex="1">
          <mxGeometry x="340" y="700" width="60" height="30" as="geometry" />
        </mxCell>
        <mxCell id="frlCl_CoD5tqCjbnerzT-96" value="(0,N)" style="text;html=1;strokeColor=none;fillColor=none;align=center;verticalAlign=middle;whiteSpace=wrap;rounded=0;fontSize=16;" parent="1" vertex="1">
          <mxGeometry x="1080" y="2180" width="60" height="30" as="geometry" />
        </mxCell>
        <mxCell id="frlCl_CoD5tqCjbnerzT-99" value="(0,N)" style="text;html=1;strokeColor=none;fillColor=none;align=center;verticalAlign=middle;whiteSpace=wrap;rounded=0;fontSize=16;" parent="1" vertex="1">
          <mxGeometry x="325" y="520" width="60" height="30" as="geometry" />
        </mxCell>
        <mxCell id="frlCl_CoD5tqCjbnerzT-100" value="(N,N)" style="text;html=1;strokeColor=none;fillColor=none;align=center;verticalAlign=middle;whiteSpace=wrap;rounded=0;fontSize=16;" parent="1" vertex="1">
          <mxGeometry x="290" y="570" width="60" height="30" as="geometry" />
        </mxCell>
        <mxCell id="frlCl_CoD5tqCjbnerzT-101" value="(0,N)" style="text;html=1;strokeColor=none;fillColor=none;align=center;verticalAlign=middle;whiteSpace=wrap;rounded=0;fontSize=16;" parent="1" vertex="1">
          <mxGeometry x="566" y="570" width="60" height="30" as="geometry" />
        </mxCell>
        <mxCell id="frlCl_CoD5tqCjbnerzT-102" value="(0,N)" style="text;html=1;strokeColor=none;fillColor=none;align=center;verticalAlign=middle;whiteSpace=wrap;rounded=0;fontSize=16;" parent="1" vertex="1">
          <mxGeometry x="505" y="700" width="60" height="30" as="geometry" />
        </mxCell>
        <mxCell id="frlCl_CoD5tqCjbnerzT-103" value="&lt;b&gt;5&lt;/b&gt;" style="shape=ext;margin=3;double=1;whiteSpace=wrap;html=1;align=center;fontSize=16;" parent="1" vertex="1">
          <mxGeometry y="1120" width="40" height="40" as="geometry" />
        </mxCell>
        <mxCell id="frlCl_CoD5tqCjbnerzT-104" value="&lt;b&gt;4&lt;/b&gt;" style="shape=ext;margin=3;double=1;whiteSpace=wrap;html=1;align=center;fontSize=16;" parent="1" vertex="1">
          <mxGeometry y="800" width="40" height="40" as="geometry" />
        </mxCell>
        <mxCell id="frlCl_CoD5tqCjbnerzT-105" value="MONHOC" style="whiteSpace=wrap;html=1;align=center;fontSize=16;" parent="1" vertex="1">
          <mxGeometry x="160" y="880" width="100" height="40" as="geometry" />
        </mxCell>
        <mxCell id="frlCl_CoD5tqCjbnerzT-108" value="(1,N)" style="text;html=1;strokeColor=none;fillColor=none;align=center;verticalAlign=middle;whiteSpace=wrap;rounded=0;fontSize=16;" parent="1" vertex="1">
          <mxGeometry x="485" y="870" width="60" height="30" as="geometry" />
        </mxCell>
        <mxCell id="frlCl_CoD5tqCjbnerzT-109" value="(0,N)" style="text;html=1;strokeColor=none;fillColor=none;align=center;verticalAlign=middle;whiteSpace=wrap;rounded=0;fontSize=16;" parent="1" vertex="1">
          <mxGeometry x="260" y="870" width="60" height="30" as="geometry" />
        </mxCell>
        <mxCell id="frlCl_CoD5tqCjbnerzT-110" value="MaMH" style="ellipse;whiteSpace=wrap;html=1;align=center;fontStyle=4;fontSize=16;" parent="1" vertex="1">
          <mxGeometry x="20" y="880" width="100" height="40" as="geometry" />
        </mxCell>
        <mxCell id="frlCl_CoD5tqCjbnerzT-111" value="TenMH" style="ellipse;whiteSpace=wrap;html=1;align=center;fontSize=16;" parent="1" vertex="1">
          <mxGeometry x="99" y="950" width="100" height="40" as="geometry" />
        </mxCell>
        <mxCell id="frlCl_CoD5tqCjbnerzT-112" value="SoTC" style="ellipse;whiteSpace=wrap;html=1;align=center;fontSize=16;" parent="1" vertex="1">
          <mxGeometry x="220" y="950" width="100" height="40" as="geometry" />
        </mxCell>
        <mxCell id="frlCl_CoD5tqCjbnerzT-115" value="HocKi" style="ellipse;whiteSpace=wrap;html=1;align=center;fontSize=16;" parent="1" vertex="1">
          <mxGeometry x="633" y="950" width="100" height="40" as="geometry" />
        </mxCell>
        <mxCell id="frlCl_CoD5tqCjbnerzT-116" value="SoHK" style="ellipse;shape=doubleEllipse;margin=3;whiteSpace=wrap;html=1;align=center;fontSize=16;" parent="1" vertex="1">
          <mxGeometry x="705" y="880" width="100" height="40" as="geometry" />
        </mxCell>
        <mxCell id="frlCl_CoD5tqCjbnerzT-117" value="NamHoc" style="ellipse;whiteSpace=wrap;html=1;align=center;fontSize=16;" parent="1" vertex="1">
          <mxGeometry x="740" y="950" width="100" height="40" as="geometry" />
        </mxCell>
        <mxCell id="frlCl_CoD5tqCjbnerzT-120" value="&lt;span style=&quot;border-bottom: 1px dotted&quot;&gt;MaKH&lt;/span&gt;" style="ellipse;whiteSpace=wrap;html=1;align=center;fontSize=16;" parent="1" vertex="1">
          <mxGeometry x="495" y="950" width="100" height="40" as="geometry" />
        </mxCell>
        <mxCell id="frlCl_CoD5tqCjbnerzT-121" value="KHOAHOC" style="shape=ext;margin=3;double=1;whiteSpace=wrap;html=1;align=center;fontSize=16;" parent="1" vertex="1">
          <mxGeometry x="545" y="880" width="120" height="40" as="geometry" />
        </mxCell>
        <mxCell id="frlCl_CoD5tqCjbnerzT-122" value="" style="endArrow=none;html=1;rounded=0;fontSize=12;startSize=8;endSize=8;curved=1;exitX=0;exitY=0;exitDx=0;exitDy=0;entryX=0.75;entryY=1;entryDx=0;entryDy=0;" parent="1" source="frlCl_CoD5tqCjbnerzT-112" target="frlCl_CoD5tqCjbnerzT-105" edge="1">
          <mxGeometry width="50" height="50" relative="1" as="geometry">
            <mxPoint x="270" y="980" as="sourcePoint" />
            <mxPoint x="320" y="930" as="targetPoint" />
          </mxGeometry>
        </mxCell>
        <mxCell id="frlCl_CoD5tqCjbnerzT-123" value="" style="endArrow=none;html=1;rounded=0;fontSize=12;startSize=8;endSize=8;curved=1;exitX=1;exitY=0;exitDx=0;exitDy=0;entryX=0.25;entryY=1;entryDx=0;entryDy=0;" parent="1" source="frlCl_CoD5tqCjbnerzT-111" target="frlCl_CoD5tqCjbnerzT-105" edge="1">
          <mxGeometry width="50" height="50" relative="1" as="geometry">
            <mxPoint x="280" y="990" as="sourcePoint" />
            <mxPoint x="330" y="940" as="targetPoint" />
          </mxGeometry>
        </mxCell>
        <mxCell id="frlCl_CoD5tqCjbnerzT-124" value="" style="endArrow=none;html=1;rounded=0;fontSize=12;startSize=8;endSize=8;curved=1;exitX=1;exitY=0.5;exitDx=0;exitDy=0;entryX=0;entryY=0.5;entryDx=0;entryDy=0;" parent="1" source="frlCl_CoD5tqCjbnerzT-110" target="frlCl_CoD5tqCjbnerzT-105" edge="1">
          <mxGeometry width="50" height="50" relative="1" as="geometry">
            <mxPoint x="350" y="1090" as="sourcePoint" />
            <mxPoint x="400" y="1040" as="targetPoint" />
          </mxGeometry>
        </mxCell>
        <mxCell id="frlCl_CoD5tqCjbnerzT-125" value="" style="endArrow=none;html=1;rounded=0;fontSize=12;startSize=8;endSize=8;curved=1;exitX=1;exitY=0.5;exitDx=0;exitDy=0;entryX=0;entryY=0.5;entryDx=0;entryDy=0;" parent="1" source="frlCl_CoD5tqCjbnerzT-105" target="frlCl_CoD5tqCjbnerzT-133" edge="1">
          <mxGeometry width="50" height="50" relative="1" as="geometry">
            <mxPoint x="360" y="1100" as="sourcePoint" />
            <mxPoint x="340" y="900" as="targetPoint" />
          </mxGeometry>
        </mxCell>
        <mxCell id="frlCl_CoD5tqCjbnerzT-126" value="" style="endArrow=none;html=1;rounded=0;fontSize=12;startSize=8;endSize=8;curved=1;entryX=1;entryY=0.5;entryDx=0;entryDy=0;exitX=1;exitY=1;exitDx=0;exitDy=0;" parent="1" source="frlCl_CoD5tqCjbnerzT-108" target="frlCl_CoD5tqCjbnerzT-133" edge="1">
          <mxGeometry width="50" height="50" relative="1" as="geometry">
            <mxPoint x="370" y="1110" as="sourcePoint" />
            <mxPoint x="460" y="900" as="targetPoint" />
          </mxGeometry>
        </mxCell>
        <mxCell id="frlCl_CoD5tqCjbnerzT-128" value="" style="endArrow=none;html=1;rounded=0;fontSize=12;startSize=8;endSize=8;curved=1;entryX=0;entryY=1;entryDx=0;entryDy=0;exitX=1;exitY=0;exitDx=0;exitDy=0;" parent="1" source="frlCl_CoD5tqCjbnerzT-115" target="frlCl_CoD5tqCjbnerzT-116" edge="1">
          <mxGeometry width="50" height="50" relative="1" as="geometry">
            <mxPoint x="390" y="1130" as="sourcePoint" />
            <mxPoint x="440" y="1080" as="targetPoint" />
          </mxGeometry>
        </mxCell>
        <mxCell id="frlCl_CoD5tqCjbnerzT-129" value="" style="endArrow=none;html=1;rounded=0;fontSize=12;startSize=8;endSize=8;curved=1;entryX=1;entryY=1;entryDx=0;entryDy=0;exitX=0.5;exitY=0;exitDx=0;exitDy=0;" parent="1" source="frlCl_CoD5tqCjbnerzT-117" target="frlCl_CoD5tqCjbnerzT-116" edge="1">
          <mxGeometry width="50" height="50" relative="1" as="geometry">
            <mxPoint x="400" y="1140" as="sourcePoint" />
            <mxPoint x="450" y="1090" as="targetPoint" />
          </mxGeometry>
        </mxCell>
        <mxCell id="frlCl_CoD5tqCjbnerzT-130" value="" style="endArrow=none;html=1;rounded=0;fontSize=12;startSize=8;endSize=8;curved=1;entryX=0;entryY=0.5;entryDx=0;entryDy=0;exitX=1;exitY=0.5;exitDx=0;exitDy=0;" parent="1" source="frlCl_CoD5tqCjbnerzT-121" target="frlCl_CoD5tqCjbnerzT-116" edge="1">
          <mxGeometry width="50" height="50" relative="1" as="geometry">
            <mxPoint x="410" y="1150" as="sourcePoint" />
            <mxPoint x="460" y="1100" as="targetPoint" />
          </mxGeometry>
        </mxCell>
        <mxCell id="frlCl_CoD5tqCjbnerzT-131" value="" style="endArrow=none;html=1;rounded=0;fontSize=12;startSize=8;endSize=8;curved=1;exitX=0.5;exitY=0;exitDx=0;exitDy=0;entryX=0;entryY=1;entryDx=0;entryDy=0;" parent="1" source="frlCl_CoD5tqCjbnerzT-120" target="frlCl_CoD5tqCjbnerzT-121" edge="1">
          <mxGeometry width="50" height="50" relative="1" as="geometry">
            <mxPoint x="420" y="1160" as="sourcePoint" />
            <mxPoint x="470" y="1110" as="targetPoint" />
          </mxGeometry>
        </mxCell>
        <mxCell id="frlCl_CoD5tqCjbnerzT-133" value="LENLICH" style="shape=rhombus;double=1;perimeter=rhombusPerimeter;whiteSpace=wrap;html=1;align=center;fontSize=16;" parent="1" vertex="1">
          <mxGeometry x="340" y="860" width="120" height="80" as="geometry" />
        </mxCell>
        <mxCell id="eK18sGvOIPcdeC3KVApK-2" value="&lt;font style=&quot;font-size: 16px;&quot;&gt;BACSI&lt;/font&gt;" style="whiteSpace=wrap;html=1;align=center;" vertex="1" parent="1">
          <mxGeometry x="215" y="1190" width="80" height="40" as="geometry" />
        </mxCell>
        <mxCell id="eK18sGvOIPcdeC3KVApK-4" value="&lt;font style=&quot;font-size: 16px;&quot;&gt;ChuyenMon&lt;/font&gt;" style="ellipse;whiteSpace=wrap;html=1;align=center;" vertex="1" parent="1">
          <mxGeometry x="60" y="1240" width="120" height="40" as="geometry" />
        </mxCell>
        <mxCell id="eK18sGvOIPcdeC3KVApK-5" value="&lt;font style=&quot;font-size: 16px;&quot;&gt;MaBS&lt;/font&gt;" style="ellipse;whiteSpace=wrap;html=1;align=center;fontStyle=4;" vertex="1" parent="1">
          <mxGeometry x="60" y="1155" width="100" height="40" as="geometry" />
        </mxCell>
        <mxCell id="eK18sGvOIPcdeC3KVApK-6" value="&lt;span style=&quot;font-size: 16px;&quot;&gt;BENHNHAN&lt;/span&gt;" style="whiteSpace=wrap;html=1;align=center;" vertex="1" parent="1">
          <mxGeometry x="545" y="1190" width="120" height="40" as="geometry" />
        </mxCell>
        <mxCell id="eK18sGvOIPcdeC3KVApK-9" value="&lt;font style=&quot;font-size: 16px;&quot;&gt;NHAN&lt;/font&gt;" style="shape=rhombus;perimeter=rhombusPerimeter;whiteSpace=wrap;html=1;align=center;" vertex="1" parent="1">
          <mxGeometry x="370" y="1120" width="110" height="60" as="geometry" />
        </mxCell>
        <mxCell id="eK18sGvOIPcdeC3KVApK-10" value="&lt;font style=&quot;font-size: 16px;&quot;&gt;MaBN&lt;/font&gt;" style="ellipse;whiteSpace=wrap;html=1;align=center;fontStyle=4;" vertex="1" parent="1">
          <mxGeometry x="720" y="1150" width="100" height="40" as="geometry" />
        </mxCell>
        <mxCell id="eK18sGvOIPcdeC3KVApK-11" value="&lt;font style=&quot;font-size: 16px;&quot;&gt;TenBN&lt;/font&gt;" style="ellipse;whiteSpace=wrap;html=1;align=center;" vertex="1" parent="1">
          <mxGeometry x="720" y="1230" width="100" height="40" as="geometry" />
        </mxCell>
        <mxCell id="eK18sGvOIPcdeC3KVApK-12" value="(1,1)" style="text;html=1;strokeColor=none;fillColor=none;align=center;verticalAlign=middle;whiteSpace=wrap;rounded=0;fontSize=16;" vertex="1" parent="1">
          <mxGeometry x="450" y="1155" width="60" height="30" as="geometry" />
        </mxCell>
        <mxCell id="eK18sGvOIPcdeC3KVApK-13" value="(1,N)" style="text;html=1;strokeColor=none;fillColor=none;align=center;verticalAlign=middle;whiteSpace=wrap;rounded=0;fontSize=16;" vertex="1" parent="1">
          <mxGeometry x="340" y="1155" width="60" height="30" as="geometry" />
        </mxCell>
        <mxCell id="eK18sGvOIPcdeC3KVApK-14" value="&lt;span style=&quot;font-size: 16px;&quot;&gt;DIEUTRI&lt;/span&gt;" style="shape=rhombus;perimeter=rhombusPerimeter;whiteSpace=wrap;html=1;align=center;" vertex="1" parent="1">
          <mxGeometry x="370" y="1240" width="110" height="60" as="geometry" />
        </mxCell>
        <mxCell id="eK18sGvOIPcdeC3KVApK-15" value="(1,N)" style="text;html=1;strokeColor=none;fillColor=none;align=center;verticalAlign=middle;whiteSpace=wrap;rounded=0;fontSize=16;" vertex="1" parent="1">
          <mxGeometry x="450" y="1230" width="60" height="30" as="geometry" />
        </mxCell>
        <mxCell id="eK18sGvOIPcdeC3KVApK-16" value="(0,N)" style="text;html=1;strokeColor=none;fillColor=none;align=center;verticalAlign=middle;whiteSpace=wrap;rounded=0;fontSize=16;" vertex="1" parent="1">
          <mxGeometry x="340" y="1230" width="60" height="30" as="geometry" />
        </mxCell>
        <mxCell id="eK18sGvOIPcdeC3KVApK-17" value="&lt;font style=&quot;font-size: 16px;&quot;&gt;KetQua&lt;/font&gt;" style="ellipse;whiteSpace=wrap;html=1;align=center;" vertex="1" parent="1">
          <mxGeometry x="510" y="1310" width="100" height="40" as="geometry" />
        </mxCell>
        <mxCell id="eK18sGvOIPcdeC3KVApK-18" value="&lt;span style=&quot;font-size: 16px;&quot;&gt;TGDieuTri&lt;/span&gt;" style="ellipse;whiteSpace=wrap;html=1;align=center;" vertex="1" parent="1">
          <mxGeometry x="375" y="1340" width="100" height="40" as="geometry" />
        </mxCell>
        <mxCell id="eK18sGvOIPcdeC3KVApK-19" value="&lt;span style=&quot;font-size: 16px;&quot;&gt;NgayDieuTri&lt;/span&gt;" style="ellipse;whiteSpace=wrap;html=1;align=center;" vertex="1" parent="1">
          <mxGeometry x="240" y="1310" width="110" height="40" as="geometry" />
        </mxCell>
        <mxCell id="eK18sGvOIPcdeC3KVApK-21" value="" style="endArrow=none;html=1;rounded=0;entryX=1;entryY=0.5;entryDx=0;entryDy=0;exitX=0;exitY=0;exitDx=0;exitDy=0;" edge="1" parent="1" source="eK18sGvOIPcdeC3KVApK-2" target="eK18sGvOIPcdeC3KVApK-5">
          <mxGeometry width="50" height="50" relative="1" as="geometry">
            <mxPoint x="130" y="1380" as="sourcePoint" />
            <mxPoint x="180" y="1330" as="targetPoint" />
          </mxGeometry>
        </mxCell>
        <mxCell id="eK18sGvOIPcdeC3KVApK-22" value="" style="endArrow=none;html=1;rounded=0;exitX=1;exitY=0;exitDx=0;exitDy=0;entryX=0;entryY=1;entryDx=0;entryDy=0;" edge="1" parent="1" source="eK18sGvOIPcdeC3KVApK-4" target="eK18sGvOIPcdeC3KVApK-2">
          <mxGeometry width="50" height="50" relative="1" as="geometry">
            <mxPoint x="140" y="1390" as="sourcePoint" />
            <mxPoint x="210" y="1230" as="targetPoint" />
          </mxGeometry>
        </mxCell>
        <mxCell id="eK18sGvOIPcdeC3KVApK-23" value="" style="endArrow=none;html=1;rounded=0;entryX=0;entryY=1;entryDx=0;entryDy=0;exitX=0.756;exitY=0.095;exitDx=0;exitDy=0;exitPerimeter=0;" edge="1" parent="1" source="eK18sGvOIPcdeC3KVApK-19" target="eK18sGvOIPcdeC3KVApK-14">
          <mxGeometry width="50" height="50" relative="1" as="geometry">
            <mxPoint x="150" y="1400" as="sourcePoint" />
            <mxPoint x="200" y="1350" as="targetPoint" />
          </mxGeometry>
        </mxCell>
        <mxCell id="eK18sGvOIPcdeC3KVApK-24" value="" style="endArrow=none;html=1;rounded=0;entryX=0.5;entryY=1;entryDx=0;entryDy=0;exitX=0.5;exitY=0;exitDx=0;exitDy=0;" edge="1" parent="1" source="eK18sGvOIPcdeC3KVApK-18" target="eK18sGvOIPcdeC3KVApK-14">
          <mxGeometry width="50" height="50" relative="1" as="geometry">
            <mxPoint x="160" y="1410" as="sourcePoint" />
            <mxPoint x="210" y="1360" as="targetPoint" />
          </mxGeometry>
        </mxCell>
        <mxCell id="eK18sGvOIPcdeC3KVApK-25" value="" style="endArrow=none;html=1;rounded=0;entryX=1;entryY=1;entryDx=0;entryDy=0;" edge="1" parent="1" source="eK18sGvOIPcdeC3KVApK-17" target="eK18sGvOIPcdeC3KVApK-14">
          <mxGeometry width="50" height="50" relative="1" as="geometry">
            <mxPoint x="170" y="1420" as="sourcePoint" />
            <mxPoint x="220" y="1370" as="targetPoint" />
          </mxGeometry>
        </mxCell>
        <mxCell id="eK18sGvOIPcdeC3KVApK-26" value="" style="endArrow=none;html=1;rounded=0;entryX=1;entryY=0;entryDx=0;entryDy=0;exitX=0;exitY=0.5;exitDx=0;exitDy=0;" edge="1" parent="1" source="eK18sGvOIPcdeC3KVApK-9" target="eK18sGvOIPcdeC3KVApK-2">
          <mxGeometry width="50" height="50" relative="1" as="geometry">
            <mxPoint x="180" y="1430" as="sourcePoint" />
            <mxPoint x="230" y="1380" as="targetPoint" />
          </mxGeometry>
        </mxCell>
        <mxCell id="eK18sGvOIPcdeC3KVApK-27" value="" style="endArrow=none;html=1;rounded=0;exitX=1;exitY=1;exitDx=0;exitDy=0;entryX=0;entryY=0.5;entryDx=0;entryDy=0;" edge="1" parent="1" source="eK18sGvOIPcdeC3KVApK-2" target="eK18sGvOIPcdeC3KVApK-14">
          <mxGeometry width="50" height="50" relative="1" as="geometry">
            <mxPoint x="190" y="1440" as="sourcePoint" />
            <mxPoint x="240" y="1390" as="targetPoint" />
          </mxGeometry>
        </mxCell>
        <mxCell id="eK18sGvOIPcdeC3KVApK-28" value="" style="endArrow=none;html=1;rounded=0;entryX=0;entryY=0.5;entryDx=0;entryDy=0;exitX=1;exitY=1;exitDx=0;exitDy=0;" edge="1" parent="1" source="eK18sGvOIPcdeC3KVApK-6" target="eK18sGvOIPcdeC3KVApK-11">
          <mxGeometry width="50" height="50" relative="1" as="geometry">
            <mxPoint x="215" y="1440" as="sourcePoint" />
            <mxPoint x="265" y="1390" as="targetPoint" />
          </mxGeometry>
        </mxCell>
        <mxCell id="eK18sGvOIPcdeC3KVApK-29" value="" style="endArrow=none;html=1;rounded=0;entryX=1;entryY=0;entryDx=0;entryDy=0;exitX=0;exitY=0.5;exitDx=0;exitDy=0;" edge="1" parent="1" source="eK18sGvOIPcdeC3KVApK-10" target="eK18sGvOIPcdeC3KVApK-6">
          <mxGeometry width="50" height="50" relative="1" as="geometry">
            <mxPoint x="210" y="1460" as="sourcePoint" />
            <mxPoint x="260" y="1410" as="targetPoint" />
          </mxGeometry>
        </mxCell>
        <mxCell id="eK18sGvOIPcdeC3KVApK-30" value="" style="endArrow=none;html=1;rounded=0;entryX=0;entryY=1;entryDx=0;entryDy=0;exitX=1;exitY=0.5;exitDx=0;exitDy=0;" edge="1" parent="1" source="eK18sGvOIPcdeC3KVApK-14" target="eK18sGvOIPcdeC3KVApK-6">
          <mxGeometry width="50" height="50" relative="1" as="geometry">
            <mxPoint x="220" y="1470" as="sourcePoint" />
            <mxPoint x="270" y="1420" as="targetPoint" />
          </mxGeometry>
        </mxCell>
        <mxCell id="eK18sGvOIPcdeC3KVApK-31" value="" style="endArrow=none;html=1;rounded=0;entryX=0;entryY=0;entryDx=0;entryDy=0;exitX=1;exitY=0.5;exitDx=0;exitDy=0;" edge="1" parent="1" source="eK18sGvOIPcdeC3KVApK-9" target="eK18sGvOIPcdeC3KVApK-6">
          <mxGeometry width="50" height="50" relative="1" as="geometry">
            <mxPoint x="230" y="1480" as="sourcePoint" />
            <mxPoint x="280" y="1430" as="targetPoint" />
          </mxGeometry>
        </mxCell>
        <mxCell id="eK18sGvOIPcdeC3KVApK-33" value="&lt;b&gt;f&lt;/b&gt;" style="shape=ext;margin=3;double=1;whiteSpace=wrap;html=1;align=center;fontSize=16;" vertex="1" parent="1">
          <mxGeometry y="1400" width="40" height="40" as="geometry" />
        </mxCell>
        <mxCell id="eK18sGvOIPcdeC3KVApK-34" value="&lt;span style=&quot;font-size: 16px;&quot;&gt;SINHVIEN&lt;/span&gt;" style="whiteSpace=wrap;html=1;align=center;" vertex="1" parent="1">
          <mxGeometry x="185" y="1470" width="120" height="40" as="geometry" />
        </mxCell>
        <mxCell id="eK18sGvOIPcdeC3KVApK-37" value="&lt;span style=&quot;font-size: 16px;&quot;&gt;NamSinh&lt;/span&gt;" style="ellipse;whiteSpace=wrap;html=1;align=center;" vertex="1" parent="1">
          <mxGeometry x="194.5" y="1400" width="100.5" height="40" as="geometry" />
        </mxCell>
        <mxCell id="eK18sGvOIPcdeC3KVApK-38" value="&lt;span style=&quot;font-size: 16px;&quot;&gt;SDT&lt;/span&gt;" style="ellipse;whiteSpace=wrap;html=1;align=center;" vertex="1" parent="1">
          <mxGeometry x="70" y="1530" width="60" height="40" as="geometry" />
        </mxCell>
        <mxCell id="eK18sGvOIPcdeC3KVApK-39" value="&lt;span style=&quot;font-size: 16px;&quot;&gt;DiaChi&lt;/span&gt;" style="ellipse;whiteSpace=wrap;html=1;align=center;" vertex="1" parent="1">
          <mxGeometry x="60" y="1470" width="80" height="40" as="geometry" />
        </mxCell>
        <mxCell id="eK18sGvOIPcdeC3KVApK-40" value="&lt;font style=&quot;font-size: 16px;&quot;&gt;TenSV&lt;br&gt;&lt;/font&gt;" style="ellipse;whiteSpace=wrap;html=1;align=center;" vertex="1" parent="1">
          <mxGeometry x="81" y="1410" width="79" height="40" as="geometry" />
        </mxCell>
        <mxCell id="eK18sGvOIPcdeC3KVApK-44" value="&lt;span style=&quot;font-size: 16px;&quot;&gt;TenHD&lt;/span&gt;" style="ellipse;whiteSpace=wrap;html=1;align=center;" vertex="1" parent="1">
          <mxGeometry x="715" y="1430" width="120" height="40" as="geometry" />
        </mxCell>
        <mxCell id="eK18sGvOIPcdeC3KVApK-47" value="&lt;span style=&quot;font-size: 16px;&quot;&gt;TGThamGiaHD&lt;/span&gt;" style="ellipse;whiteSpace=wrap;html=1;align=center;" vertex="1" parent="1">
          <mxGeometry x="720" y="1500" width="120" height="40" as="geometry" />
        </mxCell>
        <mxCell id="eK18sGvOIPcdeC3KVApK-48" value="" style="endArrow=none;html=1;rounded=0;exitX=1;exitY=1;exitDx=0;exitDy=0;entryX=0;entryY=0;entryDx=0;entryDy=0;" edge="1" parent="1" source="eK18sGvOIPcdeC3KVApK-40" target="eK18sGvOIPcdeC3KVApK-34">
          <mxGeometry width="50" height="50" relative="1" as="geometry">
            <mxPoint x="158.5" y="1690" as="sourcePoint" />
            <mxPoint x="208.5" y="1640" as="targetPoint" />
          </mxGeometry>
        </mxCell>
        <mxCell id="eK18sGvOIPcdeC3KVApK-49" value="" style="endArrow=none;html=1;rounded=0;entryX=1;entryY=0.5;entryDx=0;entryDy=0;exitX=0;exitY=1;exitDx=0;exitDy=0;" edge="1" parent="1" source="eK18sGvOIPcdeC3KVApK-34" target="eK18sGvOIPcdeC3KVApK-38">
          <mxGeometry width="50" height="50" relative="1" as="geometry">
            <mxPoint x="168.5" y="1700" as="sourcePoint" />
            <mxPoint x="218.5" y="1650" as="targetPoint" />
          </mxGeometry>
        </mxCell>
        <mxCell id="eK18sGvOIPcdeC3KVApK-50" value="" style="endArrow=none;html=1;rounded=0;entryX=1;entryY=0.5;entryDx=0;entryDy=0;exitX=0;exitY=0.5;exitDx=0;exitDy=0;" edge="1" parent="1" source="eK18sGvOIPcdeC3KVApK-34" target="eK18sGvOIPcdeC3KVApK-39">
          <mxGeometry width="50" height="50" relative="1" as="geometry">
            <mxPoint x="178.5" y="1710" as="sourcePoint" />
            <mxPoint x="228.5" y="1660" as="targetPoint" />
          </mxGeometry>
        </mxCell>
        <mxCell id="eK18sGvOIPcdeC3KVApK-51" value="" style="endArrow=none;html=1;rounded=0;entryX=0.5;entryY=1;entryDx=0;entryDy=0;exitX=0.5;exitY=0;exitDx=0;exitDy=0;" edge="1" parent="1" source="eK18sGvOIPcdeC3KVApK-34" target="eK18sGvOIPcdeC3KVApK-37">
          <mxGeometry width="50" height="50" relative="1" as="geometry">
            <mxPoint x="188.5" y="1720" as="sourcePoint" />
            <mxPoint x="238.5" y="1670" as="targetPoint" />
          </mxGeometry>
        </mxCell>
        <mxCell id="eK18sGvOIPcdeC3KVApK-52" value="" style="endArrow=none;html=1;rounded=0;exitX=1;exitY=0.5;exitDx=0;exitDy=0;entryX=0;entryY=0.5;entryDx=0;entryDy=0;" edge="1" parent="1" source="eK18sGvOIPcdeC3KVApK-59" target="eK18sGvOIPcdeC3KVApK-60">
          <mxGeometry width="50" height="50" relative="1" as="geometry">
            <mxPoint x="365" y="1720" as="sourcePoint" />
            <mxPoint x="345" y="1560" as="targetPoint" />
          </mxGeometry>
        </mxCell>
        <mxCell id="eK18sGvOIPcdeC3KVApK-53" value="" style="endArrow=none;html=1;rounded=0;exitX=1;exitY=0.5;exitDx=0;exitDy=0;" edge="1" parent="1" source="eK18sGvOIPcdeC3KVApK-34" target="eK18sGvOIPcdeC3KVApK-59">
          <mxGeometry width="50" height="50" relative="1" as="geometry">
            <mxPoint x="375" y="1730" as="sourcePoint" />
            <mxPoint x="471.9717748898993" y="1567.0147524014292" as="targetPoint" />
          </mxGeometry>
        </mxCell>
        <mxCell id="eK18sGvOIPcdeC3KVApK-54" value="" style="endArrow=none;html=1;rounded=0;exitX=0;exitY=0.5;exitDx=0;exitDy=0;entryX=1;entryY=0;entryDx=0;entryDy=0;" edge="1" parent="1" source="eK18sGvOIPcdeC3KVApK-44" target="eK18sGvOIPcdeC3KVApK-60">
          <mxGeometry width="50" height="50" relative="1" as="geometry">
            <mxPoint x="385" y="1740" as="sourcePoint" />
            <mxPoint x="435" y="1690" as="targetPoint" />
          </mxGeometry>
        </mxCell>
        <mxCell id="eK18sGvOIPcdeC3KVApK-55" value="" style="endArrow=none;html=1;rounded=0;exitX=1;exitY=1;exitDx=0;exitDy=0;entryX=0;entryY=0.5;entryDx=0;entryDy=0;" edge="1" parent="1" source="eK18sGvOIPcdeC3KVApK-60" target="eK18sGvOIPcdeC3KVApK-47">
          <mxGeometry width="50" height="50" relative="1" as="geometry">
            <mxPoint x="395" y="1750" as="sourcePoint" />
            <mxPoint x="445" y="1700" as="targetPoint" />
          </mxGeometry>
        </mxCell>
        <mxCell id="eK18sGvOIPcdeC3KVApK-56" value="" style="endArrow=none;html=1;rounded=0;exitX=1;exitY=0.5;exitDx=0;exitDy=0;entryX=0;entryY=0.5;entryDx=0;entryDy=0;" edge="1" parent="1" source="eK18sGvOIPcdeC3KVApK-69" target="eK18sGvOIPcdeC3KVApK-64">
          <mxGeometry width="50" height="50" relative="1" as="geometry">
            <mxPoint x="540" y="1950" as="sourcePoint" />
            <mxPoint x="590" y="1900" as="targetPoint" />
          </mxGeometry>
        </mxCell>
        <mxCell id="eK18sGvOIPcdeC3KVApK-57" value="" style="endArrow=none;html=1;rounded=0;exitX=0.5;exitY=1;exitDx=0;exitDy=0;" edge="1" parent="1" source="eK18sGvOIPcdeC3KVApK-70" target="eK18sGvOIPcdeC3KVApK-64">
          <mxGeometry width="50" height="50" relative="1" as="geometry">
            <mxPoint x="550" y="1960" as="sourcePoint" />
            <mxPoint x="600" y="1910" as="targetPoint" />
          </mxGeometry>
        </mxCell>
        <mxCell id="eK18sGvOIPcdeC3KVApK-58" value="" style="endArrow=none;html=1;rounded=0;exitX=0;exitY=1;exitDx=0;exitDy=0;entryX=0.5;entryY=0;entryDx=0;entryDy=0;" edge="1" parent="1" source="eK18sGvOIPcdeC3KVApK-65" target="eK18sGvOIPcdeC3KVApK-77">
          <mxGeometry width="50" height="50" relative="1" as="geometry">
            <mxPoint x="560" y="1970" as="sourcePoint" />
            <mxPoint x="610" y="1920" as="targetPoint" />
          </mxGeometry>
        </mxCell>
        <mxCell id="eK18sGvOIPcdeC3KVApK-59" value="&lt;span style=&quot;font-size: 16px;&quot;&gt;THAMGIA&lt;/span&gt;" style="shape=rhombus;perimeter=rhombusPerimeter;whiteSpace=wrap;html=1;align=center;" vertex="1" parent="1">
          <mxGeometry x="365" y="1455" width="120" height="70" as="geometry" />
        </mxCell>
        <mxCell id="eK18sGvOIPcdeC3KVApK-60" value="&lt;span style=&quot;font-size: 16px;&quot;&gt;HOATDONG&lt;/span&gt;" style="whiteSpace=wrap;html=1;align=center;" vertex="1" parent="1">
          <mxGeometry x="545" y="1470" width="120" height="40" as="geometry" />
        </mxCell>
        <mxCell id="eK18sGvOIPcdeC3KVApK-61" value="&lt;font style=&quot;font-size: 16px;&quot;&gt;(1,N)&lt;/font&gt;" style="text;html=1;strokeColor=none;fillColor=none;align=center;verticalAlign=middle;whiteSpace=wrap;rounded=0;" vertex="1" parent="1">
          <mxGeometry x="310" y="1455" width="60" height="30" as="geometry" />
        </mxCell>
        <mxCell id="eK18sGvOIPcdeC3KVApK-62" value="&lt;font style=&quot;font-size: 16px;&quot;&gt;(N,N)&lt;/font&gt;" style="text;html=1;strokeColor=none;fillColor=none;align=center;verticalAlign=middle;whiteSpace=wrap;rounded=0;" vertex="1" parent="1">
          <mxGeometry x="485" y="1455" width="60" height="30" as="geometry" />
        </mxCell>
        <mxCell id="eK18sGvOIPcdeC3KVApK-64" value="NHACUNGCAP" style="whiteSpace=wrap;html=1;align=center;" vertex="1" parent="1">
          <mxGeometry x="170" y="1680" width="120" height="40" as="geometry" />
        </mxCell>
        <mxCell id="eK18sGvOIPcdeC3KVApK-65" value="CUNGCAP" style="shape=rhombus;perimeter=rhombusPerimeter;whiteSpace=wrap;html=1;align=center;" vertex="1" parent="1">
          <mxGeometry x="385" y="1670" width="95" height="60" as="geometry" />
        </mxCell>
        <mxCell id="eK18sGvOIPcdeC3KVApK-66" value="&lt;b&gt;g&lt;/b&gt;" style="shape=ext;margin=3;double=1;whiteSpace=wrap;html=1;align=center;fontSize=16;" vertex="1" parent="1">
          <mxGeometry y="1600" width="40" height="40" as="geometry" />
        </mxCell>
        <mxCell id="eK18sGvOIPcdeC3KVApK-67" value="HANGHOA" style="whiteSpace=wrap;html=1;align=center;" vertex="1" parent="1">
          <mxGeometry x="565" y="1680" width="100" height="40" as="geometry" />
        </mxCell>
        <mxCell id="eK18sGvOIPcdeC3KVApK-68" value="SoPhieu" style="ellipse;whiteSpace=wrap;html=1;align=center;fontStyle=4;" vertex="1" parent="1">
          <mxGeometry x="320" y="1600" width="100" height="40" as="geometry" />
        </mxCell>
        <mxCell id="eK18sGvOIPcdeC3KVApK-69" value="DiaChi" style="ellipse;whiteSpace=wrap;html=1;align=center;" vertex="1" parent="1">
          <mxGeometry x="30" y="1680" width="100" height="40" as="geometry" />
        </mxCell>
        <mxCell id="eK18sGvOIPcdeC3KVApK-70" value="TenNCC" style="ellipse;whiteSpace=wrap;html=1;align=center;" vertex="1" parent="1">
          <mxGeometry x="180" y="1610" width="100" height="40" as="geometry" />
        </mxCell>
        <mxCell id="eK18sGvOIPcdeC3KVApK-71" value="SDT" style="ellipse;whiteSpace=wrap;html=1;align=center;" vertex="1" parent="1">
          <mxGeometry x="180" y="1750" width="100" height="40" as="geometry" />
        </mxCell>
        <mxCell id="eK18sGvOIPcdeC3KVApK-72" value="DonGia" style="ellipse;whiteSpace=wrap;html=1;align=center;" vertex="1" parent="1">
          <mxGeometry x="595" y="1760" width="100" height="40" as="geometry" />
        </mxCell>
        <mxCell id="eK18sGvOIPcdeC3KVApK-73" value="MatHang" style="ellipse;whiteSpace=wrap;html=1;align=center;" vertex="1" parent="1">
          <mxGeometry x="730" y="1680" width="100" height="40" as="geometry" />
        </mxCell>
        <mxCell id="eK18sGvOIPcdeC3KVApK-74" value="NuocSX" style="ellipse;whiteSpace=wrap;html=1;align=center;" vertex="1" parent="1">
          <mxGeometry x="680" y="1620" width="100" height="40" as="geometry" />
        </mxCell>
        <mxCell id="eK18sGvOIPcdeC3KVApK-75" value="SoLuong" style="ellipse;whiteSpace=wrap;html=1;align=center;" vertex="1" parent="1">
          <mxGeometry x="690" y="1730" width="100" height="40" as="geometry" />
        </mxCell>
        <mxCell id="eK18sGvOIPcdeC3KVApK-76" value="DonVi" style="ellipse;whiteSpace=wrap;html=1;align=center;" vertex="1" parent="1">
          <mxGeometry x="475" y="1760" width="100" height="40" as="geometry" />
        </mxCell>
        <mxCell id="eK18sGvOIPcdeC3KVApK-77" value="KhoNhanHang" style="ellipse;whiteSpace=wrap;html=1;align=center;" vertex="1" parent="1">
          <mxGeometry x="330" y="1760" width="100" height="40" as="geometry" />
        </mxCell>
        <mxCell id="eK18sGvOIPcdeC3KVApK-78" value="NgayNhap" style="ellipse;whiteSpace=wrap;html=1;align=center;" vertex="1" parent="1">
          <mxGeometry x="445" y="1600" width="100" height="40" as="geometry" />
        </mxCell>
        <mxCell id="eK18sGvOIPcdeC3KVApK-79" value="MaHH" style="ellipse;whiteSpace=wrap;html=1;align=center;fontStyle=4;" vertex="1" parent="1">
          <mxGeometry x="565" y="1610" width="100" height="40" as="geometry" />
        </mxCell>
        <mxCell id="eK18sGvOIPcdeC3KVApK-80" value="" style="endArrow=none;html=1;rounded=0;exitX=0.5;exitY=0;exitDx=0;exitDy=0;entryX=0.5;entryY=1;entryDx=0;entryDy=0;" edge="1" parent="1" source="eK18sGvOIPcdeC3KVApK-71" target="eK18sGvOIPcdeC3KVApK-64">
          <mxGeometry width="50" height="50" relative="1" as="geometry">
            <mxPoint x="290" y="1840" as="sourcePoint" />
            <mxPoint x="340" y="1790" as="targetPoint" />
          </mxGeometry>
        </mxCell>
        <mxCell id="eK18sGvOIPcdeC3KVApK-81" value="" style="endArrow=none;html=1;rounded=0;exitX=1;exitY=0.5;exitDx=0;exitDy=0;entryX=0;entryY=0.5;entryDx=0;entryDy=0;" edge="1" parent="1" source="eK18sGvOIPcdeC3KVApK-65" target="eK18sGvOIPcdeC3KVApK-67">
          <mxGeometry width="50" height="50" relative="1" as="geometry">
            <mxPoint x="560" y="1970" as="sourcePoint" />
            <mxPoint x="610" y="1920" as="targetPoint" />
          </mxGeometry>
        </mxCell>
        <mxCell id="eK18sGvOIPcdeC3KVApK-82" value="" style="endArrow=none;html=1;rounded=0;entryX=0;entryY=1;entryDx=0;entryDy=0;exitX=1;exitY=0;exitDx=0;exitDy=0;" edge="1" parent="1" source="eK18sGvOIPcdeC3KVApK-67" target="eK18sGvOIPcdeC3KVApK-74">
          <mxGeometry width="50" height="50" relative="1" as="geometry">
            <mxPoint x="570" y="1980" as="sourcePoint" />
            <mxPoint x="620" y="1930" as="targetPoint" />
          </mxGeometry>
        </mxCell>
        <mxCell id="eK18sGvOIPcdeC3KVApK-83" value="" style="endArrow=none;html=1;rounded=0;exitX=1;exitY=0.5;exitDx=0;exitDy=0;entryX=0;entryY=0.5;entryDx=0;entryDy=0;" edge="1" parent="1" source="eK18sGvOIPcdeC3KVApK-64" target="eK18sGvOIPcdeC3KVApK-65">
          <mxGeometry width="50" height="50" relative="1" as="geometry">
            <mxPoint x="560" y="1970" as="sourcePoint" />
            <mxPoint x="610" y="1920" as="targetPoint" />
          </mxGeometry>
        </mxCell>
        <mxCell id="eK18sGvOIPcdeC3KVApK-84" value="" style="endArrow=none;html=1;rounded=0;entryX=0.5;entryY=1;entryDx=0;entryDy=0;exitX=1;exitY=0;exitDx=0;exitDy=0;" edge="1" parent="1" source="eK18sGvOIPcdeC3KVApK-65" target="eK18sGvOIPcdeC3KVApK-78">
          <mxGeometry width="50" height="50" relative="1" as="geometry">
            <mxPoint x="545" y="2000" as="sourcePoint" />
            <mxPoint x="595" y="1950" as="targetPoint" />
          </mxGeometry>
        </mxCell>
        <mxCell id="eK18sGvOIPcdeC3KVApK-85" value="" style="endArrow=none;html=1;rounded=0;entryX=0;entryY=0;entryDx=0;entryDy=0;exitX=1;exitY=1;exitDx=0;exitDy=0;" edge="1" parent="1" source="eK18sGvOIPcdeC3KVApK-67" target="eK18sGvOIPcdeC3KVApK-75">
          <mxGeometry width="50" height="50" relative="1" as="geometry">
            <mxPoint x="580" y="1990" as="sourcePoint" />
            <mxPoint x="630" y="1940" as="targetPoint" />
          </mxGeometry>
        </mxCell>
        <mxCell id="eK18sGvOIPcdeC3KVApK-86" value="" style="endArrow=none;html=1;rounded=0;exitX=0.5;exitY=1;exitDx=0;exitDy=0;entryX=0;entryY=0;entryDx=0;entryDy=0;" edge="1" parent="1" source="eK18sGvOIPcdeC3KVApK-68" target="eK18sGvOIPcdeC3KVApK-65">
          <mxGeometry width="50" height="50" relative="1" as="geometry">
            <mxPoint x="570" y="1980" as="sourcePoint" />
            <mxPoint x="620" y="1930" as="targetPoint" />
          </mxGeometry>
        </mxCell>
        <mxCell id="eK18sGvOIPcdeC3KVApK-87" value="" style="endArrow=none;html=1;rounded=0;entryX=0.5;entryY=0;entryDx=0;entryDy=0;exitX=0.5;exitY=1;exitDx=0;exitDy=0;" edge="1" parent="1" source="eK18sGvOIPcdeC3KVApK-67" target="eK18sGvOIPcdeC3KVApK-72">
          <mxGeometry width="50" height="50" relative="1" as="geometry">
            <mxPoint x="580" y="1990" as="sourcePoint" />
            <mxPoint x="630" y="1940" as="targetPoint" />
          </mxGeometry>
        </mxCell>
        <mxCell id="eK18sGvOIPcdeC3KVApK-88" value="" style="endArrow=none;html=1;rounded=0;" edge="1" parent="1">
          <mxGeometry width="50" height="50" relative="1" as="geometry">
            <mxPoint x="1195" y="2210" as="sourcePoint" />
            <mxPoint x="1245" y="2160" as="targetPoint" />
          </mxGeometry>
        </mxCell>
        <mxCell id="eK18sGvOIPcdeC3KVApK-89" value="" style="endArrow=none;html=1;rounded=0;entryX=0;entryY=0.5;entryDx=0;entryDy=0;exitX=1;exitY=0.5;exitDx=0;exitDy=0;" edge="1" parent="1" source="eK18sGvOIPcdeC3KVApK-67" target="eK18sGvOIPcdeC3KVApK-73">
          <mxGeometry width="50" height="50" relative="1" as="geometry">
            <mxPoint x="580" y="1990" as="sourcePoint" />
            <mxPoint x="630" y="1940" as="targetPoint" />
          </mxGeometry>
        </mxCell>
        <mxCell id="eK18sGvOIPcdeC3KVApK-90" value="" style="endArrow=none;html=1;rounded=0;exitX=0.5;exitY=0;exitDx=0;exitDy=0;entryX=0;entryY=1;entryDx=0;entryDy=0;" edge="1" parent="1" source="eK18sGvOIPcdeC3KVApK-76" target="eK18sGvOIPcdeC3KVApK-67">
          <mxGeometry width="50" height="50" relative="1" as="geometry">
            <mxPoint x="590" y="2000" as="sourcePoint" />
            <mxPoint x="640" y="1950" as="targetPoint" />
          </mxGeometry>
        </mxCell>
        <mxCell id="eK18sGvOIPcdeC3KVApK-91" value="" style="endArrow=none;html=1;rounded=0;" edge="1" parent="1">
          <mxGeometry width="50" height="50" relative="1" as="geometry">
            <mxPoint x="1205" y="2220" as="sourcePoint" />
            <mxPoint x="1255" y="2170" as="targetPoint" />
          </mxGeometry>
        </mxCell>
        <mxCell id="eK18sGvOIPcdeC3KVApK-92" value="" style="endArrow=none;html=1;rounded=0;entryX=0.5;entryY=1;entryDx=0;entryDy=0;" edge="1" parent="1" target="eK18sGvOIPcdeC3KVApK-79">
          <mxGeometry width="50" height="50" relative="1" as="geometry">
            <mxPoint x="615" y="1680" as="sourcePoint" />
            <mxPoint x="640" y="1950" as="targetPoint" />
          </mxGeometry>
        </mxCell>
        <mxCell id="eK18sGvOIPcdeC3KVApK-93" value="" style="endArrow=none;html=1;rounded=0;" edge="1" parent="1">
          <mxGeometry width="50" height="50" relative="1" as="geometry">
            <mxPoint x="1205" y="2220" as="sourcePoint" />
            <mxPoint x="1255" y="2170" as="targetPoint" />
          </mxGeometry>
        </mxCell>
        <mxCell id="eK18sGvOIPcdeC3KVApK-94" value="" style="endArrow=none;html=1;rounded=0;" edge="1" parent="1">
          <mxGeometry width="50" height="50" relative="1" as="geometry">
            <mxPoint x="1215" y="2230" as="sourcePoint" />
            <mxPoint x="1265" y="2180" as="targetPoint" />
          </mxGeometry>
        </mxCell>
        <mxCell id="eK18sGvOIPcdeC3KVApK-95" value="" style="endArrow=none;html=1;rounded=0;" edge="1" parent="1">
          <mxGeometry width="50" height="50" relative="1" as="geometry">
            <mxPoint x="1205" y="2220" as="sourcePoint" />
            <mxPoint x="1255" y="2170" as="targetPoint" />
          </mxGeometry>
        </mxCell>
        <mxCell id="eK18sGvOIPcdeC3KVApK-96" value="" style="endArrow=none;html=1;rounded=0;" edge="1" parent="1">
          <mxGeometry width="50" height="50" relative="1" as="geometry">
            <mxPoint x="1215" y="2230" as="sourcePoint" />
            <mxPoint x="1265" y="2180" as="targetPoint" />
          </mxGeometry>
        </mxCell>
        <mxCell id="eK18sGvOIPcdeC3KVApK-97" value="" style="endArrow=none;html=1;rounded=0;" edge="1" parent="1">
          <mxGeometry width="50" height="50" relative="1" as="geometry">
            <mxPoint x="1225" y="2240" as="sourcePoint" />
            <mxPoint x="1275" y="2190" as="targetPoint" />
          </mxGeometry>
        </mxCell>
        <mxCell id="eK18sGvOIPcdeC3KVApK-98" value="" style="endArrow=none;html=1;rounded=0;" edge="1" parent="1">
          <mxGeometry width="50" height="50" relative="1" as="geometry">
            <mxPoint x="1215" y="2230" as="sourcePoint" />
            <mxPoint x="1265" y="2180" as="targetPoint" />
          </mxGeometry>
        </mxCell>
        <mxCell id="eK18sGvOIPcdeC3KVApK-99" value="" style="endArrow=none;html=1;rounded=0;" edge="1" parent="1">
          <mxGeometry width="50" height="50" relative="1" as="geometry">
            <mxPoint x="1225" y="2240" as="sourcePoint" />
            <mxPoint x="1275" y="2190" as="targetPoint" />
          </mxGeometry>
        </mxCell>
        <mxCell id="eK18sGvOIPcdeC3KVApK-100" value="" style="endArrow=none;html=1;rounded=0;" edge="1" parent="1">
          <mxGeometry width="50" height="50" relative="1" as="geometry">
            <mxPoint x="1235" y="2250" as="sourcePoint" />
            <mxPoint x="1285" y="2200" as="targetPoint" />
          </mxGeometry>
        </mxCell>
        <mxCell id="eK18sGvOIPcdeC3KVApK-101" value="(1,N)" style="text;html=1;strokeColor=none;fillColor=none;align=center;verticalAlign=middle;whiteSpace=wrap;rounded=0;fontSize=16;" vertex="1" parent="1">
          <mxGeometry x="505" y="1670" width="60" height="30" as="geometry" />
        </mxCell>
        <mxCell id="eK18sGvOIPcdeC3KVApK-102" value="(1,N)" style="text;html=1;strokeColor=none;fillColor=none;align=center;verticalAlign=middle;whiteSpace=wrap;rounded=0;fontSize=16;" vertex="1" parent="1">
          <mxGeometry x="290" y="1670" width="60" height="30" as="geometry" />
        </mxCell>
        <mxCell id="eK18sGvOIPcdeC3KVApK-103" value="&lt;b&gt;2&lt;/b&gt;" style="shape=ext;margin=3;double=1;whiteSpace=wrap;html=1;align=center;fontSize=16;" vertex="1" parent="1">
          <mxGeometry x="860" y="10" width="40" height="40" as="geometry" />
        </mxCell>
        <mxCell id="eK18sGvOIPcdeC3KVApK-104" value="KHOA" style="whiteSpace=wrap;html=1;align=center;" vertex="1" parent="1">
          <mxGeometry x="1195" y="187.5" width="79.5" height="40" as="geometry" />
        </mxCell>
        <mxCell id="eK18sGvOIPcdeC3KVApK-105" value="TenK" style="ellipse;whiteSpace=wrap;html=1;align=center;fontStyle=4;" vertex="1" parent="1">
          <mxGeometry x="1204.75" y="77.5" width="60" height="40" as="geometry" />
        </mxCell>
        <mxCell id="eK18sGvOIPcdeC3KVApK-106" value="MaK" style="ellipse;whiteSpace=wrap;html=1;align=center;fontStyle=4;" vertex="1" parent="1">
          <mxGeometry x="1265" y="117.5" width="60" height="40" as="geometry" />
        </mxCell>
        <mxCell id="eK18sGvOIPcdeC3KVApK-107" value="DiaChi" style="ellipse;whiteSpace=wrap;html=1;align=center;" vertex="1" parent="1">
          <mxGeometry x="1135" y="247.5" width="61" height="40" as="geometry" />
        </mxCell>
        <mxCell id="eK18sGvOIPcdeC3KVApK-108" value="SDT" style="ellipse;whiteSpace=wrap;html=1;align=center;" vertex="1" parent="1">
          <mxGeometry x="1145" y="117.5" width="61" height="40" as="geometry" />
        </mxCell>
        <mxCell id="eK18sGvOIPcdeC3KVApK-110" value="GIANGVIEN" style="whiteSpace=wrap;html=1;align=center;" vertex="1" parent="1">
          <mxGeometry x="1470" y="187.5" width="100" height="40" as="geometry" />
        </mxCell>
        <mxCell id="eK18sGvOIPcdeC3KVApK-111" value="MaGV" style="ellipse;whiteSpace=wrap;html=1;align=center;fontStyle=4;" vertex="1" parent="1">
          <mxGeometry x="1489.5" y="117.5" width="60" height="40" as="geometry" />
        </mxCell>
        <mxCell id="eK18sGvOIPcdeC3KVApK-112" value="TenGV" style="ellipse;whiteSpace=wrap;html=1;align=center;" vertex="1" parent="1">
          <mxGeometry x="1589.5" y="127.5" width="61" height="40" as="geometry" />
        </mxCell>
        <mxCell id="eK18sGvOIPcdeC3KVApK-113" value="HocVi" style="ellipse;whiteSpace=wrap;html=1;align=center;" vertex="1" parent="1">
          <mxGeometry x="1624" y="187.5" width="61" height="40" as="geometry" />
        </mxCell>
        <mxCell id="eK18sGvOIPcdeC3KVApK-114" value="SDT" style="ellipse;whiteSpace=wrap;html=1;align=center;" vertex="1" parent="1">
          <mxGeometry x="1588" y="247.5" width="61" height="40" as="geometry" />
        </mxCell>
        <mxCell id="eK18sGvOIPcdeC3KVApK-117" value="&lt;font style=&quot;font-size: 12px;&quot;&gt;(0,1)&lt;/font&gt;" style="text;html=1;strokeColor=none;fillColor=none;align=center;verticalAlign=middle;whiteSpace=wrap;rounded=0;fontSize=16;" vertex="1" parent="1">
          <mxGeometry x="1435" y="207.5" width="30" height="20" as="geometry" />
        </mxCell>
        <mxCell id="eK18sGvOIPcdeC3KVApK-118" value="HOCPHAN" style="whiteSpace=wrap;html=1;align=center;" vertex="1" parent="1">
          <mxGeometry x="1185" y="427.5" width="100" height="40" as="geometry" />
        </mxCell>
        <mxCell id="eK18sGvOIPcdeC3KVApK-119" value="MaHP" style="ellipse;whiteSpace=wrap;html=1;align=center;fontStyle=4;" vertex="1" parent="1">
          <mxGeometry x="1114.25" y="367.5" width="60" height="40" as="geometry" />
        </mxCell>
        <mxCell id="eK18sGvOIPcdeC3KVApK-120" value="TenHP" style="ellipse;whiteSpace=wrap;html=1;align=center;fontStyle=4;" vertex="1" parent="1">
          <mxGeometry x="1085.25" y="427.5" width="60" height="40" as="geometry" />
        </mxCell>
        <mxCell id="eK18sGvOIPcdeC3KVApK-121" value="MoTa" style="ellipse;whiteSpace=wrap;html=1;align=center;" vertex="1" parent="1">
          <mxGeometry x="1113.25" y="487.5" width="61" height="40" as="geometry" />
        </mxCell>
        <mxCell id="eK18sGvOIPcdeC3KVApK-122" value="STC" style="ellipse;whiteSpace=wrap;html=1;align=center;" vertex="1" parent="1">
          <mxGeometry x="1204.5" y="497.5" width="61" height="40" as="geometry" />
        </mxCell>
        <mxCell id="eK18sGvOIPcdeC3KVApK-123" value="PHUTRACH" style="shape=rhombus;perimeter=rhombusPerimeter;whiteSpace=wrap;html=1;align=center;" vertex="1" parent="1">
          <mxGeometry x="1175" y="307.5" width="120" height="60" as="geometry" />
        </mxCell>
        <mxCell id="eK18sGvOIPcdeC3KVApK-124" value="SINHVIEN" style="whiteSpace=wrap;html=1;align=center;" vertex="1" parent="1">
          <mxGeometry x="900" y="187.5" width="100" height="40" as="geometry" />
        </mxCell>
        <mxCell id="eK18sGvOIPcdeC3KVApK-125" value="MaSV" style="ellipse;whiteSpace=wrap;html=1;align=center;fontStyle=4;" vertex="1" parent="1">
          <mxGeometry x="865" y="117.5" width="60" height="40" as="geometry" />
        </mxCell>
        <mxCell id="eK18sGvOIPcdeC3KVApK-126" value="TenSV" style="ellipse;whiteSpace=wrap;html=1;align=center;fontStyle=4;" vertex="1" parent="1">
          <mxGeometry x="920" y="77.5" width="60" height="40" as="geometry" />
        </mxCell>
        <mxCell id="eK18sGvOIPcdeC3KVApK-127" value="NgaySinh" style="ellipse;whiteSpace=wrap;html=1;align=center;" vertex="1" parent="1">
          <mxGeometry x="973.5" y="117.5" width="61" height="40" as="geometry" />
        </mxCell>
        <mxCell id="eK18sGvOIPcdeC3KVApK-128" value="DiaChi" style="ellipse;whiteSpace=wrap;html=1;align=center;" vertex="1" parent="1">
          <mxGeometry x="880" y="257.5" width="61" height="40" as="geometry" />
        </mxCell>
        <mxCell id="eK18sGvOIPcdeC3KVApK-129" value="SDT" style="ellipse;whiteSpace=wrap;html=1;align=center;" vertex="1" parent="1">
          <mxGeometry x="993" y="257.5" width="61" height="40" as="geometry" />
        </mxCell>
        <mxCell id="eK18sGvOIPcdeC3KVApK-130" value="THUOC" style="shape=rhombus;perimeter=rhombusPerimeter;whiteSpace=wrap;html=1;align=center;" vertex="1" parent="1">
          <mxGeometry x="1054" y="182.5" width="89.25" height="50" as="geometry" />
        </mxCell>
        <mxCell id="eK18sGvOIPcdeC3KVApK-131" value="LOPHOC" style="whiteSpace=wrap;html=1;align=center;" vertex="1" parent="1">
          <mxGeometry x="1470" y="427.5" width="100" height="40" as="geometry" />
        </mxCell>
        <mxCell id="eK18sGvOIPcdeC3KVApK-132" value="MaLH" style="ellipse;whiteSpace=wrap;html=1;align=center;fontStyle=4;" vertex="1" parent="1">
          <mxGeometry x="1575" y="360" width="60" height="40" as="geometry" />
        </mxCell>
        <mxCell id="eK18sGvOIPcdeC3KVApK-134" value="STT" style="ellipse;whiteSpace=wrap;html=1;align=center;" vertex="1" parent="1">
          <mxGeometry x="1619.5" y="405" width="61" height="40" as="geometry" />
        </mxCell>
        <mxCell id="eK18sGvOIPcdeC3KVApK-135" value="DiaDiem" style="ellipse;whiteSpace=wrap;html=1;align=center;fontStyle=0" vertex="1" parent="1">
          <mxGeometry x="1495.5" y="495" width="61" height="40" as="geometry" />
        </mxCell>
        <mxCell id="eK18sGvOIPcdeC3KVApK-136" value="ThoiGian" style="ellipse;whiteSpace=wrap;html=1;align=center;" vertex="1" parent="1">
          <mxGeometry x="1425" y="495" width="61" height="40" as="geometry" />
        </mxCell>
        <mxCell id="eK18sGvOIPcdeC3KVApK-137" value="Nam" style="ellipse;whiteSpace=wrap;html=1;align=center;" vertex="1" parent="1">
          <mxGeometry x="1568" y="495" width="61" height="40" as="geometry" />
        </mxCell>
        <mxCell id="eK18sGvOIPcdeC3KVApK-138" value="HocKi" style="ellipse;whiteSpace=wrap;html=1;align=center;" vertex="1" parent="1">
          <mxGeometry x="1619" y="455" width="61" height="40" as="geometry" />
        </mxCell>
        <mxCell id="eK18sGvOIPcdeC3KVApK-139" value="LIENQUAN" style="shape=rhombus;perimeter=rhombusPerimeter;whiteSpace=wrap;html=1;align=center;" vertex="1" parent="1">
          <mxGeometry x="1315" y="385" width="120" height="60" as="geometry" />
        </mxCell>
        <mxCell id="eK18sGvOIPcdeC3KVApK-140" value="DAY" style="shape=rhombus;perimeter=rhombusPerimeter;whiteSpace=wrap;html=1;align=center;" vertex="1" parent="1">
          <mxGeometry x="1490" y="317.5" width="59" height="50" as="geometry" />
        </mxCell>
        <mxCell id="eK18sGvOIPcdeC3KVApK-141" value="NgayBoNhiem" style="ellipse;whiteSpace=wrap;html=1;align=center;" vertex="1" parent="1">
          <mxGeometry x="1325" y="307.5" width="100" height="40" as="geometry" />
        </mxCell>
        <mxCell id="eK18sGvOIPcdeC3KVApK-142" value="TRUONGKHOA" style="shape=rhombus;perimeter=rhombusPerimeter;whiteSpace=wrap;html=1;align=center;" vertex="1" parent="1">
          <mxGeometry x="1315" y="217.5" width="120" height="60" as="geometry" />
        </mxCell>
        <mxCell id="eK18sGvOIPcdeC3KVApK-144" value="" style="endArrow=none;html=1;rounded=0;entryX=0.25;entryY=0;entryDx=0;entryDy=0;exitX=1;exitY=1;exitDx=0;exitDy=0;" edge="1" parent="1" source="eK18sGvOIPcdeC3KVApK-108" target="eK18sGvOIPcdeC3KVApK-104">
          <mxGeometry width="50" height="50" relative="1" as="geometry">
            <mxPoint x="1165" y="257.5" as="sourcePoint" />
            <mxPoint x="1565" y="437.5" as="targetPoint" />
          </mxGeometry>
        </mxCell>
        <mxCell id="eK18sGvOIPcdeC3KVApK-145" value="" style="endArrow=none;html=1;rounded=0;entryX=0.25;entryY=1;entryDx=0;entryDy=0;exitX=1;exitY=0.5;exitDx=0;exitDy=0;" edge="1" parent="1" source="eK18sGvOIPcdeC3KVApK-107" target="eK18sGvOIPcdeC3KVApK-104">
          <mxGeometry width="50" height="50" relative="1" as="geometry">
            <mxPoint x="1575" y="477.5" as="sourcePoint" />
            <mxPoint x="1568.87" y="397.5" as="targetPoint" />
          </mxGeometry>
        </mxCell>
        <mxCell id="eK18sGvOIPcdeC3KVApK-146" value="" style="endArrow=none;html=1;rounded=0;entryX=0;entryY=1;entryDx=0;entryDy=0;exitX=0.75;exitY=0;exitDx=0;exitDy=0;" edge="1" parent="1" source="eK18sGvOIPcdeC3KVApK-104" target="eK18sGvOIPcdeC3KVApK-106">
          <mxGeometry width="50" height="50" relative="1" as="geometry">
            <mxPoint x="1591.13" y="537.5" as="sourcePoint" />
            <mxPoint x="1585" y="457.5" as="targetPoint" />
          </mxGeometry>
        </mxCell>
        <mxCell id="eK18sGvOIPcdeC3KVApK-147" value="" style="endArrow=none;html=1;rounded=0;entryX=0.5;entryY=1;entryDx=0;entryDy=0;exitX=0.5;exitY=0;exitDx=0;exitDy=0;" edge="1" parent="1" source="eK18sGvOIPcdeC3KVApK-104" target="eK18sGvOIPcdeC3KVApK-105">
          <mxGeometry width="50" height="50" relative="1" as="geometry">
            <mxPoint x="1601.13" y="547.5" as="sourcePoint" />
            <mxPoint x="1595" y="467.5" as="targetPoint" />
          </mxGeometry>
        </mxCell>
        <mxCell id="eK18sGvOIPcdeC3KVApK-148" value="" style="endArrow=none;html=1;rounded=0;entryX=0.5;entryY=1;entryDx=0;entryDy=0;" edge="1" parent="1" source="eK18sGvOIPcdeC3KVApK-141" target="eK18sGvOIPcdeC3KVApK-142">
          <mxGeometry width="50" height="50" relative="1" as="geometry">
            <mxPoint x="1611.13" y="557.5" as="sourcePoint" />
            <mxPoint x="1605" y="477.5" as="targetPoint" />
          </mxGeometry>
        </mxCell>
        <mxCell id="eK18sGvOIPcdeC3KVApK-149" value="" style="endArrow=none;html=1;rounded=0;entryX=1;entryY=1;entryDx=0;entryDy=0;exitX=0;exitY=0.5;exitDx=0;exitDy=0;" edge="1" parent="1" source="eK18sGvOIPcdeC3KVApK-142" target="eK18sGvOIPcdeC3KVApK-104">
          <mxGeometry width="50" height="50" relative="1" as="geometry">
            <mxPoint x="1617.31" y="517.5" as="sourcePoint" />
            <mxPoint x="1611.1799999999998" y="437.5" as="targetPoint" />
          </mxGeometry>
        </mxCell>
        <mxCell id="eK18sGvOIPcdeC3KVApK-150" value="" style="endArrow=none;html=1;rounded=0;entryX=1;entryY=0;entryDx=0;entryDy=0;exitX=0;exitY=0.5;exitDx=0;exitDy=0;" edge="1" parent="1" source="eK18sGvOIPcdeC3KVApK-179" target="eK18sGvOIPcdeC3KVApK-104">
          <mxGeometry width="50" height="50" relative="1" as="geometry">
            <mxPoint x="1313" y="167.5" as="sourcePoint" />
            <mxPoint x="1625" y="497.5" as="targetPoint" />
          </mxGeometry>
        </mxCell>
        <mxCell id="eK18sGvOIPcdeC3KVApK-151" value="" style="endArrow=none;html=1;rounded=0;entryX=0;entryY=1;entryDx=0;entryDy=0;exitX=1;exitY=0.5;exitDx=0;exitDy=0;" edge="1" parent="1" source="eK18sGvOIPcdeC3KVApK-142" target="eK18sGvOIPcdeC3KVApK-110">
          <mxGeometry width="50" height="50" relative="1" as="geometry">
            <mxPoint x="1641.13" y="587.5" as="sourcePoint" />
            <mxPoint x="1635" y="507.5" as="targetPoint" />
          </mxGeometry>
        </mxCell>
        <mxCell id="eK18sGvOIPcdeC3KVApK-152" value="" style="endArrow=none;html=1;rounded=0;exitX=1;exitY=0.5;exitDx=0;exitDy=0;entryX=0;entryY=0;entryDx=0;entryDy=0;" edge="1" parent="1" source="eK18sGvOIPcdeC3KVApK-179" target="eK18sGvOIPcdeC3KVApK-110">
          <mxGeometry width="50" height="50" relative="1" as="geometry">
            <mxPoint x="1427" y="167.5" as="sourcePoint" />
            <mxPoint x="1505" y="207.5" as="targetPoint" />
          </mxGeometry>
        </mxCell>
        <mxCell id="eK18sGvOIPcdeC3KVApK-153" value="" style="endArrow=none;html=1;rounded=0;entryX=0.5;entryY=1;entryDx=0;entryDy=0;exitX=0.5;exitY=0;exitDx=0;exitDy=0;" edge="1" parent="1" source="eK18sGvOIPcdeC3KVApK-140" target="eK18sGvOIPcdeC3KVApK-110">
          <mxGeometry width="50" height="50" relative="1" as="geometry">
            <mxPoint x="1578.0700000000002" y="657.5" as="sourcePoint" />
            <mxPoint x="1571.94" y="577.5" as="targetPoint" />
          </mxGeometry>
        </mxCell>
        <mxCell id="eK18sGvOIPcdeC3KVApK-154" value="" style="endArrow=none;html=1;rounded=0;entryX=0.75;entryY=0;entryDx=0;entryDy=0;exitX=0;exitY=1;exitDx=0;exitDy=0;" edge="1" parent="1" source="eK18sGvOIPcdeC3KVApK-132" target="eK18sGvOIPcdeC3KVApK-131">
          <mxGeometry width="50" height="50" relative="1" as="geometry">
            <mxPoint x="1593.0700000000002" y="665" as="sourcePoint" />
            <mxPoint x="1586.94" y="585" as="targetPoint" />
          </mxGeometry>
        </mxCell>
        <mxCell id="eK18sGvOIPcdeC3KVApK-155" value="" style="endArrow=none;html=1;rounded=0;entryX=1;entryY=0.5;entryDx=0;entryDy=0;exitX=0;exitY=0;exitDx=0;exitDy=0;" edge="1" parent="1" source="eK18sGvOIPcdeC3KVApK-138" target="eK18sGvOIPcdeC3KVApK-131">
          <mxGeometry width="50" height="50" relative="1" as="geometry">
            <mxPoint x="1603.0700000000002" y="675" as="sourcePoint" />
            <mxPoint x="1596.94" y="595" as="targetPoint" />
          </mxGeometry>
        </mxCell>
        <mxCell id="eK18sGvOIPcdeC3KVApK-156" value="" style="endArrow=none;html=1;rounded=0;exitX=0.5;exitY=1;exitDx=0;exitDy=0;entryX=0.75;entryY=0;entryDx=0;entryDy=0;" edge="1" parent="1" source="eK18sGvOIPcdeC3KVApK-127" target="eK18sGvOIPcdeC3KVApK-124">
          <mxGeometry width="50" height="50" relative="1" as="geometry">
            <mxPoint x="816.13" y="292.5" as="sourcePoint" />
            <mxPoint x="810" y="212.5" as="targetPoint" />
          </mxGeometry>
        </mxCell>
        <mxCell id="eK18sGvOIPcdeC3KVApK-157" value="" style="endArrow=none;html=1;rounded=0;exitX=0;exitY=0.5;exitDx=0;exitDy=0;entryX=1;entryY=0.5;entryDx=0;entryDy=0;" edge="1" parent="1" source="eK18sGvOIPcdeC3KVApK-130" target="eK18sGvOIPcdeC3KVApK-124">
          <mxGeometry width="50" height="50" relative="1" as="geometry">
            <mxPoint x="826.13" y="302.5" as="sourcePoint" />
            <mxPoint x="820" y="222.5" as="targetPoint" />
          </mxGeometry>
        </mxCell>
        <mxCell id="eK18sGvOIPcdeC3KVApK-158" value="" style="endArrow=none;html=1;rounded=0;entryX=0;entryY=0.5;entryDx=0;entryDy=0;exitX=1;exitY=0.5;exitDx=0;exitDy=0;" edge="1" parent="1" source="eK18sGvOIPcdeC3KVApK-130" target="eK18sGvOIPcdeC3KVApK-104">
          <mxGeometry width="50" height="50" relative="1" as="geometry">
            <mxPoint x="836.13" y="282.5" as="sourcePoint" />
            <mxPoint x="830" y="202.5" as="targetPoint" />
          </mxGeometry>
        </mxCell>
        <mxCell id="eK18sGvOIPcdeC3KVApK-159" value="" style="endArrow=none;html=1;rounded=0;entryX=0.5;entryY=0;entryDx=0;entryDy=0;exitX=0.25;exitY=1;exitDx=0;exitDy=0;" edge="1" parent="1" source="eK18sGvOIPcdeC3KVApK-124" target="eK18sGvOIPcdeC3KVApK-128">
          <mxGeometry width="50" height="50" relative="1" as="geometry">
            <mxPoint x="846.13" y="322.5" as="sourcePoint" />
            <mxPoint x="840" y="242.5" as="targetPoint" />
          </mxGeometry>
        </mxCell>
        <mxCell id="eK18sGvOIPcdeC3KVApK-160" value="" style="endArrow=none;html=1;rounded=0;entryX=0.5;entryY=1;entryDx=0;entryDy=0;" edge="1" parent="1" source="eK18sGvOIPcdeC3KVApK-110" target="eK18sGvOIPcdeC3KVApK-111">
          <mxGeometry width="50" height="50" relative="1" as="geometry">
            <mxPoint x="1475" y="357.5" as="sourcePoint" />
            <mxPoint x="1525" y="307.5" as="targetPoint" />
          </mxGeometry>
        </mxCell>
        <mxCell id="eK18sGvOIPcdeC3KVApK-161" value="" style="endArrow=none;html=1;rounded=0;entryX=0;entryY=1;entryDx=0;entryDy=0;exitX=1;exitY=0;exitDx=0;exitDy=0;" edge="1" parent="1" source="eK18sGvOIPcdeC3KVApK-110" target="eK18sGvOIPcdeC3KVApK-112">
          <mxGeometry width="50" height="50" relative="1" as="geometry">
            <mxPoint x="1485" y="367.5" as="sourcePoint" />
            <mxPoint x="1535" y="317.5" as="targetPoint" />
          </mxGeometry>
        </mxCell>
        <mxCell id="eK18sGvOIPcdeC3KVApK-162" value="" style="endArrow=none;html=1;rounded=0;exitX=1;exitY=0.5;exitDx=0;exitDy=0;entryX=0;entryY=0.5;entryDx=0;entryDy=0;" edge="1" parent="1" source="eK18sGvOIPcdeC3KVApK-110" target="eK18sGvOIPcdeC3KVApK-113">
          <mxGeometry width="50" height="50" relative="1" as="geometry">
            <mxPoint x="1495" y="377.5" as="sourcePoint" />
            <mxPoint x="1545" y="327.5" as="targetPoint" />
          </mxGeometry>
        </mxCell>
        <mxCell id="eK18sGvOIPcdeC3KVApK-163" value="" style="endArrow=none;html=1;rounded=0;entryX=1;entryY=1;entryDx=0;entryDy=0;exitX=0;exitY=0;exitDx=0;exitDy=0;" edge="1" parent="1" source="eK18sGvOIPcdeC3KVApK-114" target="eK18sGvOIPcdeC3KVApK-110">
          <mxGeometry width="50" height="50" relative="1" as="geometry">
            <mxPoint x="1505" y="387.5" as="sourcePoint" />
            <mxPoint x="1555" y="337.5" as="targetPoint" />
          </mxGeometry>
        </mxCell>
        <mxCell id="eK18sGvOIPcdeC3KVApK-164" value="" style="endArrow=none;html=1;rounded=0;exitX=0.5;exitY=1;exitDx=0;exitDy=0;entryX=0.5;entryY=0;entryDx=0;entryDy=0;" edge="1" parent="1" source="eK18sGvOIPcdeC3KVApK-104" target="eK18sGvOIPcdeC3KVApK-123">
          <mxGeometry width="50" height="50" relative="1" as="geometry">
            <mxPoint x="1515" y="397.5" as="sourcePoint" />
            <mxPoint x="1215" y="297.5" as="targetPoint" />
          </mxGeometry>
        </mxCell>
        <mxCell id="eK18sGvOIPcdeC3KVApK-165" value="" style="endArrow=none;html=1;rounded=0;exitX=0.5;exitY=0;exitDx=0;exitDy=0;entryX=0.5;entryY=1;entryDx=0;entryDy=0;" edge="1" parent="1" source="eK18sGvOIPcdeC3KVApK-118" target="eK18sGvOIPcdeC3KVApK-123">
          <mxGeometry width="50" height="50" relative="1" as="geometry">
            <mxPoint x="1545.25" y="407.5" as="sourcePoint" />
            <mxPoint x="1595.25" y="357.5" as="targetPoint" />
          </mxGeometry>
        </mxCell>
        <mxCell id="eK18sGvOIPcdeC3KVApK-166" value="" style="endArrow=none;html=1;rounded=0;exitX=0;exitY=0;exitDx=0;exitDy=0;entryX=1;entryY=1;entryDx=0;entryDy=0;" edge="1" parent="1" source="eK18sGvOIPcdeC3KVApK-118" target="eK18sGvOIPcdeC3KVApK-119">
          <mxGeometry width="50" height="50" relative="1" as="geometry">
            <mxPoint x="1555.25" y="417.5" as="sourcePoint" />
            <mxPoint x="1605.25" y="367.5" as="targetPoint" />
          </mxGeometry>
        </mxCell>
        <mxCell id="eK18sGvOIPcdeC3KVApK-167" value="&lt;font style=&quot;font-size: 12px;&quot;&gt;(1,1)&lt;/font&gt;" style="text;html=1;strokeColor=none;fillColor=none;align=center;verticalAlign=middle;whiteSpace=wrap;rounded=0;fontSize=16;" vertex="1" parent="1">
          <mxGeometry x="1280" y="207.5" width="30" height="20" as="geometry" />
        </mxCell>
        <mxCell id="eK18sGvOIPcdeC3KVApK-168" value="&lt;font style=&quot;font-size: 12px;&quot;&gt;(1,1)&lt;/font&gt;" style="text;html=1;strokeColor=none;fillColor=none;align=center;verticalAlign=middle;whiteSpace=wrap;rounded=0;fontSize=16;" vertex="1" parent="1">
          <mxGeometry x="1435" y="182.5" width="30" height="20" as="geometry" />
        </mxCell>
        <mxCell id="eK18sGvOIPcdeC3KVApK-169" value="&lt;font style=&quot;font-size: 12px;&quot;&gt;(1,N)&lt;/font&gt;" style="text;html=1;strokeColor=none;fillColor=none;align=center;verticalAlign=middle;whiteSpace=wrap;rounded=0;fontSize=16;" vertex="1" parent="1">
          <mxGeometry x="1280" y="182.5" width="30" height="20" as="geometry" />
        </mxCell>
        <mxCell id="eK18sGvOIPcdeC3KVApK-170" value="&lt;font style=&quot;font-size: 12px;&quot;&gt;(1,1)&lt;/font&gt;" style="text;html=1;strokeColor=none;fillColor=none;align=center;verticalAlign=middle;whiteSpace=wrap;rounded=0;fontSize=16;" vertex="1" parent="1">
          <mxGeometry x="1235.5" y="397.5" width="30" height="20" as="geometry" />
        </mxCell>
        <mxCell id="eK18sGvOIPcdeC3KVApK-171" value="&lt;font style=&quot;font-size: 12px;&quot;&gt;(1,N)&lt;/font&gt;" style="text;html=1;strokeColor=none;fillColor=none;align=center;verticalAlign=middle;whiteSpace=wrap;rounded=0;fontSize=16;" vertex="1" parent="1">
          <mxGeometry x="1235.5" y="232.5" width="30" height="20" as="geometry" />
        </mxCell>
        <mxCell id="eK18sGvOIPcdeC3KVApK-172" value="" style="endArrow=none;html=1;rounded=0;exitX=1;exitY=0.5;exitDx=0;exitDy=0;entryX=0;entryY=0.5;entryDx=0;entryDy=0;" edge="1" parent="1" source="eK18sGvOIPcdeC3KVApK-120" target="eK18sGvOIPcdeC3KVApK-118">
          <mxGeometry width="50" height="50" relative="1" as="geometry">
            <mxPoint x="1565.25" y="427.5" as="sourcePoint" />
            <mxPoint x="1615.25" y="377.5" as="targetPoint" />
          </mxGeometry>
        </mxCell>
        <mxCell id="eK18sGvOIPcdeC3KVApK-173" value="" style="endArrow=none;html=1;rounded=0;exitX=0.728;exitY=0.03;exitDx=0;exitDy=0;exitPerimeter=0;entryX=0;entryY=1;entryDx=0;entryDy=0;" edge="1" parent="1" source="eK18sGvOIPcdeC3KVApK-121" target="eK18sGvOIPcdeC3KVApK-118">
          <mxGeometry width="50" height="50" relative="1" as="geometry">
            <mxPoint x="1575.25" y="437.5" as="sourcePoint" />
            <mxPoint x="1625.25" y="387.5" as="targetPoint" />
          </mxGeometry>
        </mxCell>
        <mxCell id="eK18sGvOIPcdeC3KVApK-174" value="" style="endArrow=none;html=1;rounded=0;exitX=0.5;exitY=0;exitDx=0;exitDy=0;entryX=0.5;entryY=1;entryDx=0;entryDy=0;" edge="1" parent="1" source="eK18sGvOIPcdeC3KVApK-122" target="eK18sGvOIPcdeC3KVApK-118">
          <mxGeometry width="50" height="50" relative="1" as="geometry">
            <mxPoint x="1585.25" y="447.5" as="sourcePoint" />
            <mxPoint x="1635.25" y="397.5" as="targetPoint" />
          </mxGeometry>
        </mxCell>
        <mxCell id="eK18sGvOIPcdeC3KVApK-175" value="" style="endArrow=none;html=1;rounded=0;entryX=0.5;entryY=1;entryDx=0;entryDy=0;exitX=0.5;exitY=0;exitDx=0;exitDy=0;" edge="1" parent="1" source="eK18sGvOIPcdeC3KVApK-124" target="eK18sGvOIPcdeC3KVApK-126">
          <mxGeometry width="50" height="50" relative="1" as="geometry">
            <mxPoint x="745" y="352.5" as="sourcePoint" />
            <mxPoint x="795" y="302.5" as="targetPoint" />
          </mxGeometry>
        </mxCell>
        <mxCell id="eK18sGvOIPcdeC3KVApK-176" value="" style="endArrow=none;html=1;rounded=0;entryX=0.5;entryY=1;entryDx=0;entryDy=0;exitX=0.25;exitY=0;exitDx=0;exitDy=0;" edge="1" parent="1" source="eK18sGvOIPcdeC3KVApK-124" target="eK18sGvOIPcdeC3KVApK-125">
          <mxGeometry width="50" height="50" relative="1" as="geometry">
            <mxPoint x="755" y="362.5" as="sourcePoint" />
            <mxPoint x="805" y="312.5" as="targetPoint" />
          </mxGeometry>
        </mxCell>
        <mxCell id="eK18sGvOIPcdeC3KVApK-177" value="" style="endArrow=none;html=1;rounded=0;entryX=0;entryY=0;entryDx=0;entryDy=0;exitX=0.75;exitY=1;exitDx=0;exitDy=0;" edge="1" parent="1" source="eK18sGvOIPcdeC3KVApK-124" target="eK18sGvOIPcdeC3KVApK-129">
          <mxGeometry width="50" height="50" relative="1" as="geometry">
            <mxPoint x="765" y="372.5" as="sourcePoint" />
            <mxPoint x="815" y="322.5" as="targetPoint" />
          </mxGeometry>
        </mxCell>
        <mxCell id="eK18sGvOIPcdeC3KVApK-179" value="LAMVIEC" style="shape=rhombus;perimeter=rhombusPerimeter;whiteSpace=wrap;html=1;align=center;" vertex="1" parent="1">
          <mxGeometry x="1315" y="137.5" width="120" height="60" as="geometry" />
        </mxCell>
        <mxCell id="eK18sGvOIPcdeC3KVApK-181" value="&lt;font style=&quot;font-size: 12px;&quot;&gt;(1,1)&lt;/font&gt;" style="text;html=1;strokeColor=none;fillColor=none;align=center;verticalAlign=middle;whiteSpace=wrap;rounded=0;fontSize=16;" vertex="1" parent="1">
          <mxGeometry x="1004.5" y="182.5" width="30" height="20" as="geometry" />
        </mxCell>
        <mxCell id="eK18sGvOIPcdeC3KVApK-182" value="&lt;font style=&quot;font-size: 12px;&quot;&gt;(1,N)&lt;/font&gt;" style="text;html=1;strokeColor=none;fillColor=none;align=center;verticalAlign=middle;whiteSpace=wrap;rounded=0;fontSize=16;" vertex="1" parent="1">
          <mxGeometry x="1160.5" y="182.5" width="30" height="20" as="geometry" />
        </mxCell>
        <mxCell id="eK18sGvOIPcdeC3KVApK-183" value="" style="endArrow=none;html=1;rounded=0;entryX=0.5;entryY=1;entryDx=0;entryDy=0;" edge="1" parent="1" source="eK18sGvOIPcdeC3KVApK-131" target="eK18sGvOIPcdeC3KVApK-140">
          <mxGeometry width="50" height="50" relative="1" as="geometry">
            <mxPoint x="1588.0700000000002" y="667.5" as="sourcePoint" />
            <mxPoint x="1581.94" y="587.5" as="targetPoint" />
          </mxGeometry>
        </mxCell>
        <mxCell id="eK18sGvOIPcdeC3KVApK-184" value="" style="endArrow=none;html=1;rounded=0;entryX=1;entryY=0;entryDx=0;entryDy=0;exitX=0;exitY=0.5;exitDx=0;exitDy=0;" edge="1" parent="1" source="eK18sGvOIPcdeC3KVApK-134" target="eK18sGvOIPcdeC3KVApK-131">
          <mxGeometry width="50" height="50" relative="1" as="geometry">
            <mxPoint x="1603.0700000000002" y="675" as="sourcePoint" />
            <mxPoint x="1596.94" y="595" as="targetPoint" />
          </mxGeometry>
        </mxCell>
        <mxCell id="eK18sGvOIPcdeC3KVApK-185" value="" style="endArrow=none;html=1;rounded=0;entryX=0.5;entryY=1;entryDx=0;entryDy=0;" edge="1" parent="1" source="eK18sGvOIPcdeC3KVApK-135" target="eK18sGvOIPcdeC3KVApK-131">
          <mxGeometry width="50" height="50" relative="1" as="geometry">
            <mxPoint x="1613.0700000000002" y="685" as="sourcePoint" />
            <mxPoint x="1606.94" y="605" as="targetPoint" />
          </mxGeometry>
        </mxCell>
        <mxCell id="eK18sGvOIPcdeC3KVApK-186" value="" style="endArrow=none;html=1;rounded=0;entryX=1;entryY=1;entryDx=0;entryDy=0;exitX=0.5;exitY=0;exitDx=0;exitDy=0;" edge="1" parent="1" source="eK18sGvOIPcdeC3KVApK-137" target="eK18sGvOIPcdeC3KVApK-131">
          <mxGeometry width="50" height="50" relative="1" as="geometry">
            <mxPoint x="1623.0700000000002" y="695" as="sourcePoint" />
            <mxPoint x="1616.94" y="615" as="targetPoint" />
          </mxGeometry>
        </mxCell>
        <mxCell id="eK18sGvOIPcdeC3KVApK-187" value="" style="endArrow=none;html=1;rounded=0;entryX=0.25;entryY=1;entryDx=0;entryDy=0;exitX=0.5;exitY=0;exitDx=0;exitDy=0;" edge="1" parent="1" source="eK18sGvOIPcdeC3KVApK-136" target="eK18sGvOIPcdeC3KVApK-131">
          <mxGeometry width="50" height="50" relative="1" as="geometry">
            <mxPoint x="1633.0700000000002" y="705" as="sourcePoint" />
            <mxPoint x="1626.94" y="625" as="targetPoint" />
          </mxGeometry>
        </mxCell>
        <mxCell id="eK18sGvOIPcdeC3KVApK-188" value="" style="endArrow=none;html=1;rounded=0;entryX=0;entryY=0;entryDx=0;entryDy=0;exitX=1;exitY=0.5;exitDx=0;exitDy=0;" edge="1" parent="1" source="eK18sGvOIPcdeC3KVApK-139" target="eK18sGvOIPcdeC3KVApK-131">
          <mxGeometry width="50" height="50" relative="1" as="geometry">
            <mxPoint x="1638.0700000000002" y="717.5" as="sourcePoint" />
            <mxPoint x="1631.94" y="637.5" as="targetPoint" />
          </mxGeometry>
        </mxCell>
        <mxCell id="eK18sGvOIPcdeC3KVApK-189" value="" style="endArrow=none;html=1;rounded=0;entryX=1;entryY=0;entryDx=0;entryDy=0;exitX=0;exitY=0.5;exitDx=0;exitDy=0;" edge="1" parent="1" source="eK18sGvOIPcdeC3KVApK-139" target="eK18sGvOIPcdeC3KVApK-118">
          <mxGeometry width="50" height="50" relative="1" as="geometry">
            <mxPoint x="1648.0700000000002" y="727.5" as="sourcePoint" />
            <mxPoint x="1641.94" y="647.5" as="targetPoint" />
          </mxGeometry>
        </mxCell>
        <mxCell id="eK18sGvOIPcdeC3KVApK-190" value="" style="endArrow=none;html=1;rounded=0;entryX=0;entryY=0.5;entryDx=0;entryDy=0;exitX=0.5;exitY=1;exitDx=0;exitDy=0;" edge="1" parent="1" source="eK18sGvOIPcdeC3KVApK-124" target="eK18sGvOIPcdeC3KVApK-196">
          <mxGeometry width="50" height="50" relative="1" as="geometry">
            <mxPoint x="1658.0700000000002" y="737.5" as="sourcePoint" />
            <mxPoint x="1651.94" y="657.5" as="targetPoint" />
          </mxGeometry>
        </mxCell>
        <mxCell id="eK18sGvOIPcdeC3KVApK-192" value="&lt;font style=&quot;font-size: 12px;&quot;&gt;(1,1)&lt;/font&gt;" style="text;html=1;strokeColor=none;fillColor=none;align=center;verticalAlign=middle;whiteSpace=wrap;rounded=0;fontSize=16;" vertex="1" parent="1">
          <mxGeometry x="1440" y="420" width="30" height="20" as="geometry" />
        </mxCell>
        <mxCell id="eK18sGvOIPcdeC3KVApK-193" value="&lt;font style=&quot;font-size: 12px;&quot;&gt;(1,N)&lt;/font&gt;" style="text;html=1;strokeColor=none;fillColor=none;align=center;verticalAlign=middle;whiteSpace=wrap;rounded=0;fontSize=16;" vertex="1" parent="1">
          <mxGeometry x="1290" y="427.5" width="30" height="20" as="geometry" />
        </mxCell>
        <mxCell id="eK18sGvOIPcdeC3KVApK-194" value="&lt;font style=&quot;font-size: 12px;&quot;&gt;(1,1)&lt;/font&gt;" style="text;html=1;strokeColor=none;fillColor=none;align=center;verticalAlign=middle;whiteSpace=wrap;rounded=0;fontSize=16;" vertex="1" parent="1">
          <mxGeometry x="1486" y="400" width="30" height="20" as="geometry" />
        </mxCell>
        <mxCell id="eK18sGvOIPcdeC3KVApK-195" value="&lt;font style=&quot;font-size: 12px;&quot;&gt;(1,N)&lt;/font&gt;" style="text;html=1;strokeColor=none;fillColor=none;align=center;verticalAlign=middle;whiteSpace=wrap;rounded=0;fontSize=16;" vertex="1" parent="1">
          <mxGeometry x="1485" y="232.5" width="30" height="20" as="geometry" />
        </mxCell>
        <mxCell id="eK18sGvOIPcdeC3KVApK-196" value="DANGKI" style="shape=rhombus;perimeter=rhombusPerimeter;whiteSpace=wrap;html=1;align=center;" vertex="1" parent="1">
          <mxGeometry x="1015" y="597.5" width="95.5" height="52.5" as="geometry" />
        </mxCell>
        <mxCell id="eK18sGvOIPcdeC3KVApK-197" value="&lt;font style=&quot;font-size: 12px;&quot;&gt;(1,N)&lt;/font&gt;" style="text;html=1;strokeColor=none;fillColor=none;align=center;verticalAlign=middle;whiteSpace=wrap;rounded=0;fontSize=16;" vertex="1" parent="1">
          <mxGeometry x="925" y="232.5" width="30" height="20" as="geometry" />
        </mxCell>
        <mxCell id="eK18sGvOIPcdeC3KVApK-198" value="" style="endArrow=none;html=1;rounded=0;entryX=0;entryY=1;entryDx=0;entryDy=0;exitX=1;exitY=0.5;exitDx=0;exitDy=0;" edge="1" parent="1" source="eK18sGvOIPcdeC3KVApK-196" target="eK18sGvOIPcdeC3KVApK-131">
          <mxGeometry width="50" height="50" relative="1" as="geometry">
            <mxPoint x="1205" y="587.5" as="sourcePoint" />
            <mxPoint x="1175" y="377.5" as="targetPoint" />
          </mxGeometry>
        </mxCell>
        <mxCell id="eK18sGvOIPcdeC3KVApK-199" value="&lt;font style=&quot;font-size: 12px;&quot;&gt;(5,N)&lt;/font&gt;" style="text;html=1;strokeColor=none;fillColor=none;align=center;verticalAlign=middle;whiteSpace=wrap;rounded=0;fontSize=16;" vertex="1" parent="1">
          <mxGeometry x="1435" y="445" width="30" height="20" as="geometry" />
        </mxCell>
        <mxCell id="eK18sGvOIPcdeC3KVApK-200" value="Diem" style="ellipse;whiteSpace=wrap;html=1;align=center;" vertex="1" parent="1">
          <mxGeometry x="1049.5" y="537.5" width="61" height="40" as="geometry" />
        </mxCell>
        <mxCell id="eK18sGvOIPcdeC3KVApK-201" value="" style="endArrow=none;html=1;rounded=0;exitX=0.5;exitY=0;exitDx=0;exitDy=0;entryX=0.5;entryY=1;entryDx=0;entryDy=0;" edge="1" parent="1" source="eK18sGvOIPcdeC3KVApK-196" target="eK18sGvOIPcdeC3KVApK-200">
          <mxGeometry width="50" height="50" relative="1" as="geometry">
            <mxPoint x="1497" y="477.5" as="sourcePoint" />
            <mxPoint x="1106.75" y="507.5" as="targetPoint" />
          </mxGeometry>
        </mxCell>
      </root>
    </mxGraphModel>
  </diagram>
</mxfile>
